<svg xmlns="http://www.w3.org/2000/svg" viewBox="0 0 55.277 57.064"><defs><style>.a{fill:#f26322;}.b{fill:#f16322;}</style></defs><g transform="translate(0)"><g transform="translate(6.365)"><path class="a" d="M54.612,50.7H5.7V0H7.263V49.135H54.612Z" transform="translate(-5.7)"/></g><rect class="a" width="7.147" height="1.563" transform="translate(0 12.619)"/><rect class="a" width="7.147" height="1.563" transform="translate(0 18.649)"/><rect class="a" width="7.147" height="1.563" transform="translate(0 24.679)"/><rect class="a" width="7.147" height="1.563" transform="translate(0 30.598)"/><rect class="a" width="7.147" height="1.563" transform="translate(0 36.628)"/><rect class="a" width="7.147" height="1.563" transform="translate(0 42.547)"/><rect class="a" width="7.147" height="1.563" transform="translate(0 6.7)"/><path class="a" d="M7.147,44.84V43.5H0v1.563H6.365v6.924H7.929V44.84Z" transform="translate(0 5.077)"/><rect class="a" width="1.563" height="7.147" transform="translate(12.284 49.917)"/><rect class="a" width="1.563" height="7.147" transform="translate(18.314 49.917)"/><rect class="a" width="1.563" height="7.147" transform="translate(24.233 49.917)"/><rect class="a" width="1.563" height="7.147" transform="translate(30.263 49.917)"/><rect class="a" width="1.563" height="7.147" transform="translate(36.181 49.917)"/><rect class="a" width="1.563" height="7.147" transform="translate(42.547 49.917)"/><rect class="a" width="1.563" height="7.147" transform="translate(48.465 49.917)"/><path class="a" d="M44.53,31.145v8.487H42.185V22.882A.763.763,0,0,0,41.4,22.1H37.048a.763.763,0,0,0-.782.782V39.632H33.921v-9.38a.763.763,0,0,0-.782-.782H28.784a.763.763,0,0,0-.782.782v9.38H25.657V26.455a.763.763,0,0,0-.782-.782H20.52a.763.763,0,0,0-.782.782V39.744H18.064V34.5a.763.763,0,0,0-.782-.782H12.927a.763.763,0,0,0-.782.782v5.249H10.582a.782.782,0,0,0,0,1.563H51.453a.782.782,0,0,0,0-1.563H50.448V31.257a.763.763,0,0,0-.782-.782H45.311A.628.628,0,0,0,44.53,31.145Zm4.355,8.487H46.093V31.927h2.792Zm-32.385,0H13.708V35.277H16.5Zm7.594,0H21.3v-12.4h2.792Zm8.264,0H29.566v-8.6h2.792Zm8.264,0H37.829V23.663h2.792Z" transform="translate(1.144 2.579)"/><g transform="translate(12.597 5.638)"><path class="b" d="M12.084,30.12h0a.736.736,0,0,1-.782-.893c.223-2.233,1.34-13.177,6.142-13.289,2.457-.112,3.573,2.122,4.579,4.02,1.117,2.122,1.787,3.35,3.35,3.238,1.9-.223,2.345-2.345,2.68-5.7.335-3.127.782-6.7,4.132-6.7,2.457-.112,3.573,2.233,4.579,4.244.893,1.9,1.563,3.238,2.792,3.238,1.9,0,2.233-1.005,3.685-8.6l.335-1.675a3.366,3.366,0,0,1,1.675-2.68A3.331,3.331,0,0,1,47.6,5.218c.223,0,.447.447.223.893a.816.816,0,0,1-1.117.447h0a1.079,1.079,0,0,0-.893,0,2.288,2.288,0,0,0-.782,1.563L44.692,9.8c-1.452,7.482-1.9,10.05-5.36,9.939-2.345-.112-3.35-2.233-4.244-4.132-1.005-2.122-1.675-3.35-3.015-3.35-1.787,0-2.122,2.01-2.457,5.249s-.782,6.812-4.243,7.147c-2.68.223-3.908-2.01-4.914-4.02S18.673,17.39,17.444,17.5c-2.345.112-4.02,6.924-4.467,11.837A.948.948,0,0,1,12.084,30.12Z" transform="translate(-11.281 -5.049)"/></g></g></svg>