<svg width="450" height="300" version="1.1" id="Layer_1" xmlns="http://www.w3.org/2000/svg" xmlns:xlink="http://www.w3.org/1999/xlink" x="0px" y="0px" viewBox="-627 -15 450 300" style="enable-background:new -627 -15 450 300;" xml:space="preserve">
<style type="text/css">
	.st0{fill:#FFFFFF;}
	.st1{fill:#0AB45A;}
</style>
<g>
	<path class="st0" d="M-385.8,197.7l-15.6-75.5l-38.4-2.4l-9.7-35.1l20.4-28.6l-4.1-16l18.9-21.2c-0.7-0.5-1.6-0.9-2.4-1.5   l-19.4,7.5l6.8-14.5c-9.7-4.8-20.2-8.6-31.2-11.1l-13.9,12.4c0,0-10.3-1.3-15.6-2.2c-3.1-0.5-2.5-7.7-1.6-13.4   c-4.6,0-9.2,0.4-13.6,0.8l-0.8,2h-8.1l-1.7-0.4C-528.2,0.9-540,5.1-551,10.6l5.1,4.7l30.2-9l9.7,18.6l-53.8,38.9l-5.7,11.8   l-12.3-8.1l-16.4,8.1l-0.8,9.8l7.3,4.1l9.7-3.3l16.4,22.7l16.4-6.6l34,15.8l31,26.1l-12.6,30.4l-30.2,42.7v22l-14.8-7.3l-9-62.7   l-18.8-22.9v-31l-26.1-18.8l-19.6-5.7l-4.6-11.9c-7.1,16.4-11,34.5-11,53.6c0,68.5,50.3,124.9,115.9,135l10.5-16.6l7.5,18.2   c0.9,0,2.1,0.2,3,0.2c52.1,0,97.3-29.1,120.4-71.8H-386v0.1H-385.8z M-549.2,91.8h-5.9l-10-9.7l11.8,2.1h8.1L-549.2,91.8z    M-422.1,51.9l15.2-12.3l18.3,12.3l1.6-9.2c5.2,5.9,9.8,12.3,13.9,19l-21.9,2l-10-12.1L-422.1,51.9z"/>
	<path class="st1" d="M-344.8,199.3l-0.2,0.2l0,0C-344.9,199.4-344.9,199.3-344.8,199.3z M-554.7,49.2c2.2,0,3.9-1.8,3.9-3.9   c0-1.2-0.5-2.2-1.3-2.9c4.3-5.7,14.2-18.2,28.3-29.4C-506-1.3-478.2-17-445.1-10.6c10.7,2.1,18,7.3,21.2,15   c2.3,5.9,1.5,11.2,1.5,11.3l0.7,0.2c0-0.2,3.5-22-23-27.2c-33.3-6.6-61.6,9.3-79.2,23.7C-538.2,23.8-548,36.1-552.5,42   c-0.7-0.4-1.5-0.7-2.2-0.7c-2.2,0-3.9,1.8-3.9,3.9C-558.7,47.3-556.9,49.2-554.7,49.2z M-504.3,287c-12.1,0.2-23.2-6-30.3-17.3   c-10.1-16-8.1-34.2-4.7-46.6c2.5-8.9,6.2-16.2,8.3-20.1c0.7,0.2,1.2,0.5,1.8,0.5c2.2,0,3.9-1.8,3.9-3.9c0-2.1-1.8-3.9-3.9-3.9   c-1.1,0-2.1,0.5-2.8,1.1c-7.2-7.9-27.3-31.6-39-67.7c-11.8-36.7-8.5-69.1-7-79.6c0.2,0,0.2,0,0.2,0c2.2,0,3.9-1.8,3.9-3.9   c0-2.1-1.8-3.9-3.9-3.9c-2.2,0-3.9,1.8-3.9,3.9c0,2,1.3,3.5,3,3.9c-1.6,10.6-4.8,43.2,7,80c11.6,36.4,31.8,60.3,39.3,68.1   c-0.5,0.7-0.8,1.5-0.8,2.4c0,1.3,0.7,2.4,1.6,3.1c-2.2,3.9-5.7,11.3-8.3,20.3c-3.5,12.5-5.5,30.9,4.7,47.2   c7.1,11.2,18,17.7,30.1,17.7c0.2,0,0.7,0,0.8,0c11.8-0.2,22.5-6.8,28.6-17.7l-0.7-0.4C-482.2,280.2-492.8,286.8-504.3,287z    M-353.2,88.3l-18.5,0.7c-0.2-0.8-0.4-1.6-0.8-2.1c2.8-17.1,0.2-31-7.5-41.4c-8-10.7-19.8-14.8-25.9-16.2c0-0.2,0.2-0.5,0.2-0.7   c0-2.2-1.8-3.9-3.9-3.9c-2.1,0-3.9,1.8-3.9,3.9c0,2.2,1.8,3.9,3.9,3.9c1.7,0,3.1-1.1,3.7-2.6c6.2,1.5,17.8,5.5,25.7,16   c7.5,10.1,10.1,23.7,7.5,40.4c-0.7-0.7-1.6-0.9-2.6-0.9c-0.4,0-0.7,0-0.8,0.2c-8.6-9.5-32.3-33.7-61-45.6   c-30.1-12.5-69.9-15.8-82.5-16.7c0-0.2,0-0.2,0-0.2c0-2.2-1.8-3.9-3.9-3.9s-3.9,1.8-3.9,3.9s1.8,3.9,3.9,3.9c2,0,3.5-1.3,3.9-3.1   c12.5,0.8,52.3,4.2,82.3,16.6c28.3,11.8,51.8,35.5,60.6,45.1c-1.5,0.7-2.4,2.1-2.4,3.7c0,0.5,0.2,1.1,0.2,1.5l-20.2,9.4   c-0.7-1.3-2.1-2.3-3.6-2.3c-2.2,0-3.9,1.8-3.9,3.9c0,2.2,1.8,3.9,3.9,3.9c2.1,0,3.9-1.8,3.9-3.9c0-0.4,0-0.7-0.2-1.1l20.3-9.3   c0.7,1.2,2,2,3.4,2c2.1,0,3.9-1.6,3.9-3.6l18.5-0.7l0.2,3.9l6.6-4.8l-6.8-4.4L-353.2,88.3z"/>
</g>
</svg>