<svg data-name="Layer 1" xmlns="http://www.w3.org/2000/svg" width="1600" height="226">
  <path fill="#0647a7" d="M70.5 2l-1.2 2.6L67.6 7l3-.3 2.9.3-1.7-2.4L70.5 2zM78 2l-1.3 2.6L75 7l3-.3 3 .3-1.8-2.4L78 2zM85.5 2l-1.3 2.6L82.5 7l3-.3 2.9.3-1.7-2.4L85.4 2zM93 2l-1.3 2.6L90 7l3-.3 2.9.3-1.7-2.4L92.9 2zM100.4 2L99 4.6 97.4 7l3-.3 3 .3-1.8-2.4-1.2-2.6zM107.8 2l-1.2 2.6-1.7 2.4 3-.3 2.9.3-1.7-2.4-1.3-2.6zM115.3 2L114 4.6 112.3 7l3-.3 3 .3-1.8-2.4-1.2-2.6zM122.8 2l-1.3 2.6-1.7 2.4 3-.3 2.9.3-1.7-2.4-1.3-2.6zM130.2 2L129 4.6 127.3 7l3-.3 2.8.3-1.6-2.4-1.3-2.6zM145.1 2L144 4.6 142.2 7l3-.3 2.9.3-1.7-2.4L145 2zM152.6 2l-1.3 2.6-1.7 2.4 3-.3 3 .3-1.8-2.4-1.2-2.6zM160 2l-1.2 2.6L157 7l3-.3 2.9.3-1.7-2.4L160 2zM167.5 2l-1.3 2.6-1.6 2.4 2.9-.3 3 .3-1.8-2.4-1.2-2.6zM182.4 2l-1.2 2.6-1.7 2.4 3-.3 2.9.3-1.7-2.4-1.3-2.6zM189.9 2l-1.3 2.6L187 7l3-.3 3 .3-1.8-2.4L190 2zM197.3 2l-1.2 2.6-1.7 2.4 3-.3 2.9.3-1.7-2.4-1.3-2.6zM204.8 2l-1.3 2.6-1.7 2.4 3-.3 3 .3-1.8-2.4-1.2-2.6zM212.3 2L211 4.6 209.3 7l3-.3 2.9.3-1.7-2.4-1.3-2.6zM219.7 2l-1.2 2.6-1.7 2.4 3-.3 2.9.3-1.7-2.4-1.3-2.6zM227.2 2l-1.3 2.6-1.7 2.4 3-.3 3 .3-1.8-2.4-1.2-2.6zM331.6 2l-1.2 2.6-1.6 2.3 2.8-.3 2.8.3-1.6-2.3-1.2-2.5zM346.5 2l-1.3 2.6-1.6 2.4 3-.3 2.8.3-1.6-2.4-1.3-2.6zM354 2l-1.3 2.6L351 7l3-.3 3 .3-1.8-2.4L354 2zM368.9 2l-1.2 2.6-1.7 2.3 2.9-.2 2.9.2-1.7-2.3-1.2-2.5zM376.3 2l-1.2 2.6-1.7 2.4 3-.3 2.9.3-1.7-2.4-1.3-2.6zM383.8 2l-1.3 2.6L381 7l2.9-.3 3 .3-1.7-2.4-1.3-2.6zM391.3 2L390 4.6 388.3 7l3-.3 3 .3-1.8-2.4-1.2-2.6zM398.7 2l-1.2 2.6-1.7 2.4 3-.3 2.9.3-1.7-2.4-1.3-2.6zM406.2 2l-1.3 2.6-1.6 2.3 2.9-.2 2.9.2-1.7-2.3-1.2-2.6zM413.6 2l-1.2 2.6-1.7 2.4 3-.3 2.9.3-1.7-2.4-1.3-2.6zM421.1 2l-1.3 2.6-1.7 2.4 3-.3 3 .3-1.8-2.4-1.2-2.6zM428.6 2l-1.3 2.6-1.7 2.4 3-.3 2.9.3-1.7-2.4-1.3-2.6zM436 2l-1.2 2.6L433 7l3-.3 2.9.3-1.7-2.4L436 2zM443.5 2l-1.3 2.6-1.7 2.4 3-.3 3 .3-1.8-2.4-1.2-2.6zM451 2l-1.3 2.6L448 7l3-.3 2.9.3-1.7-2.4-1.3-2.6zM458.4 2L457 4.6 455.4 7l3-.3 3 .3-1.8-2.4-1.2-2.6zM465.9 2l-1.3 2.6-1.7 2.4 3-.3 2.9.3-1.7-2.4-1.3-2.6zM473.3 2L472 4.6 470.4 7l3-.3 2.9.3-1.7-2.4-1.3-2.6zM480.8 2l-1.3 2.6-1.7 2.4 3-.3 3 .3-1.8-2.4-1.2-2.6zM488.2 2L487 4.6l-1.7 2.3 3-.2 2.8.2-1.6-2.3-1.3-2.6zM495.7 2l-1.3 2.6-1.7 2.4 3-.3 3 .3-1.8-2.4-1.2-2.6zM503.1 2L502 4.6 500.2 7l3-.3 2.9.3-1.7-2.4L503 2zM510.6 2l-1.3 2.6-1.7 2.4 3-.3 3 .3-1.8-2.4-1.2-2.6zM518 2l-1.2 2.6-1.7 2.4 3-.3 2.9.3-1.7-2.4-1.2-2.6zM525.5 2l-1.2 2.6-1.7 2.4 3-.3 2.9.3-1.7-2.4-1.3-2.6zM533 2l-1.3 2.6L530 7l3-.3 3 .3-1.8-2.4L533 2zM540.4 2l-1.2 2.6-1.7 2.4 3-.3 2.9.3-1.7-2.4-1.3-2.6zM547.9 2l-1.3 2.6L545 7l2.9-.3 3 .3-1.8-2.4L548 2zM555.4 2L554 4.6 552.4 7l3-.3 2.9.3-1.7-2.4-1.3-2.6zM562.8 2l-1.2 2.6-1.7 2.4 3-.3 2.9.3-1.7-2.4-1.3-2.6zM570.3 2L569 4.6 567.3 7l3-.3 3 .3-1.8-2.4-1.2-2.6zM577.7 2l-1.2 2.6-1.7 2.4 3-.3 2.9.3-1.7-2.4-1.3-2.6zM585.2 2l-1.3 2.6-1.7 2.4 3-.3 3 .3-1.8-2.4-1.2-2.6zM592.6 2l-1.2 2.6-1.7 2.4 3-.3 2.9.3-1.7-2.4-1.3-2.6zM600.1 2l-1.3 2.6-1.6 2.4 2.9-.3 3 .3-1.7-2.4L600 2zM607.6 2l-1.3 2.6-1.7 2.4 3-.3 3 .3-1.8-2.4-1.2-2.6zM615 2l-1.2 2.6L612 7l3-.3 2.9.3-1.7-2.4L615 2zM622.5 2l-1.3 2.6-1.7 2.4 3-.3 3 .3-1.8-2.4-1.2-2.6zM630 2l-1.3 2.6L627 7l3-.3 2.9.3-1.7-2.4-1.3-2.6zM637.4 2l-1.3 2.6-1.6 2.4 2.9-.3 3 .3-1.8-2.4-1.2-2.6zM644.9 2l-1.3 2.6-1.7 2.4 3-.3 2.9.3-1.7-2.4L645 2zM652.3 2l-1.2 2.6-1.7 2.4 3-.3 2.9.3-1.7-2.4-1.3-2.6zM659.8 2l-1.3 2.6-1.7 2.4 3-.3 3 .3-1.8-2.4-1.2-2.6zM667.2 2.5l-1 2.2-1.4 2 2.4-.3 2.5.3-1.4-2-1-2.2zM704.5 2l-1.2 2.6-1.7 2.4 3-.3 2.9.3-1.7-2.4-1.3-2.6zM66.8 8.3l-1.2 2.6-1.7 2.4 3-.3 2.8.3-1.6-2.4-1.3-2.6zM74.3 8.3L73 10.9l-1.7 2.4 3-.3 3 .3-1.8-2.4-1.2-2.6zM81.7 8.3l-1.2 2.6-1.7 2.4 3-.3 2.9.3-1.7-2.4-1.3-2.6zM89.2 8.3l-1.3 2.6-1.7 2.4 3-.3 3 .3-1.8-2.4-1.2-2.6zM96.6 8.3l-1.2 2.6-1.7 2.4 3-.3 2.9.3-1.7-2.4-1.3-2.6zM104.1 8.3l-1.3 2.6-1.6 2.4 2.9-.3 3 .3-1.7-2.4-1.3-2.6zM111.6 8.3l-1.3 2.6-1.7 2.4 3-.3 3 .3-1.8-2.4-1.2-2.6zM119 8.3l-1.2 2.6-1.7 2.4 3-.3 2.9.3-1.7-2.4-1.3-2.6zM126.5 8.3l-1.3 2.6-1.7 2.4 3-.3 3 .3-1.8-2.4-1.2-2.6zM134 8.3l-1.3 2.6-1.7 2.4 3-.3 2.9.3-1.7-2.4-1.3-2.6zM141.4 8.3l-1.3 2.6-1.7 2.4 3-.3 3 .3-1.8-2.4-1.2-2.6zM148.8 8.3l-1.2 2.6-1.7 2.4 3-.3 2.9.3-1.7-2.4-1.3-2.6zM156.3 8.3l-1.2 2.6-1.7 2.4 3-.3 2.9.3-1.7-2.4-1.3-2.6zM163.8 8.3l-1.3 2.6-1.7 2.4 3-.3 3 .3-1.8-2.4-1.2-2.6zM171.2 8.3l-1.2 2.6-1.7 2.4 3-.3 2.9.3-1.7-2.4-1.3-2.6zM178.7 8.3l-1.3 2.6-1.7 2.4 3-.3 3 .3-1.8-2.4-1.2-2.6zM186.2 8.3l-1.3 2.6-1.7 2.4 3-.3 2.9.3-1.7-2.4-1.3-2.6zM193.6 8.3l-1.3 2.6-1.6 2.4 3-.3 2.9.3-1.7-2.4-1.3-2.6zM201 11.3v.2l-.2.3h.6l-.2-.3-.1-.2zM208.5 10.8l-.3.6-.3.6H209.2l-.4-.6-.3-.6zM223.4 8.3l-1.2 2.6-1.7 2.4 3-.3 2.9.3-1.7-2.4-1.3-2.6zM357.7 8.3l-1.3 2.6-1.6 2.4 2.9-.3 3 .3-1.8-2.4-1.2-2.6zM365.1 8.3l-1.2 2.6-1.7 2.4 3-.3 2.9.3-1.7-2.4-1.3-2.6zM372.6 8.3l-1.2 2.6-1.7 2.4 3-.3 2.9.3-1.7-2.4-1.3-2.6zM380 8.3l-1.2 2.6-1.7 2.4 3-.3 3 .3-1.8-2.4-1.2-2.6zM387.5 8.3l-1.2 2.6-1.7 2.4 3-.3 2.9.3-1.7-2.4-1.3-2.6zM395 8.3l-1.2 2.6-1.7 2.3 2.9-.2 2.9.2-1.7-2.3-1.2-2.6zM402.4 8.3l-1.2 2.6-1.7 2.4 3-.3 2.9.3-1.7-2.4-1.3-2.6zM410 8.3l-1.4 2.6-1.6 2.4 3-.3 2.9.3-1.7-2.4-1.3-2.6zM417.4 8.3l-1.3 2.6-1.7 2.4 3-.3 3 .3-1.8-2.4-1.2-2.6zM424.8 8.3l-1.2 2.6-1.7 2.4 3-.3 2.9.3-1.7-2.4-1.3-2.6zM432.3 8.3l-1.3 2.6-1.7 2.4 3-.3 3 .3-1.8-2.4-1.2-2.6zM439.7 8.3l-1.2 2.6-1.7 2.4 3-.3 2.9.3-1.7-2.4-1.3-2.6zM447.2 8.3l-1.3 2.6-1.6 2.4 2.9-.3 3 .3-1.8-2.4-1.2-2.6zM454.7 8.3l-1.3 2.6-1.7 2.4 3-.3 3 .3-1.8-2.4-1.2-2.6zM462.1 8.3l-1.2 2.6-1.7 2.4 3-.3 2.9.3-1.7-2.4-1.3-2.6zM469.6 8.3l-1.3 2.6-1.7 2.4 3-.3 3 .3-1.8-2.4-1.2-2.6zM477 8.3l-1.2 2.6-1.7 2.4 3-.3 2.9.3-1.7-2.4-1.3-2.6zM484.5 8.3l-1.3 2.6-1.6 2.4 2.9-.3 3 .3-1.8-2.4-1.2-2.6zM492 8.3l-1.3 2.6-1.7 2.4 3-.3 2.9.3-1.7-2.4-1.3-2.6zM499.4 8.3l-1.2 2.6-1.7 2.4 3-.3 2.9.3-1.7-2.4-1.3-2.6zM506.9 8.3l-1.3 2.6-1.7 2.4 3-.3 3 .3-1.8-2.4-1.2-2.6zM514.3 8.3l-1.2 2.6-1.7 2.4 3-.3 2.9.3-1.7-2.4-1.3-2.6zM521.8 8.3l-1.3 2.6-1.7 2.4 3-.3 3 .3-1.8-2.4-1.2-2.6zM529.3 8.3l-1.3 2.6-1.7 2.4 3-.3 2.9.3-1.7-2.4-1.3-2.6zM536.7 8.3l-1.3 2.6-1.6 2.4 2.9-.3 3 .3-1.7-2.4-1.3-2.6zM544.2 8.3l-1.3 2.6-1.7 2.4 3-.3 3 .3-1.8-2.4-1.2-2.6zM551.6 8.3l-1.2 2.6-1.7 2.4 3-.3 2.9.3-1.7-2.4-1.3-2.6zM559 8.3l-1.2 2.6-1.7 2.4 3-.3 3 .3-1.8-2.4-1.2-2.6zM566.5 8.3l-1.2 2.6-1.7 2.4 3-.3 2.9.3-1.7-2.4-1.3-2.6zM574 8.3l-1.2 2.6-1.7 2.3 2.9-.2 3 .3-1.8-2.4-1.2-2.6zM581.5 8.3l-1.3 2.6-1.7 2.4 3-.3 2.9.3-1.7-2.4-1.2-2.6zM589 8.3l-1.3 2.6-1.7 2.4 3-.3 2.9.3-1.7-2.4-1.3-2.6zM596.4 8.3L595 11l-1.6 2.3 2.9-.2 2.9.2-1.7-2.3-1.2-2.6zM603.8 8.3l-1.2 2.6-1.7 2.4 3-.3 2.9.3-1.7-2.4-1.3-2.6zM611.3 8.3l-1.3 2.6-1.6 2.4 2.9-.3 3 .3-1.8-2.4-1.2-2.6zM618.8 8.3l-1.3 2.6-1.7 2.4 3-.3 2.9.3-1.7-2.4-1.3-2.6zM626.2 8.3l-1.2 2.6-1.7 2.4 3-.3 2.9.3-1.7-2.4-1.3-2.6zM633.7 8.3l-1.3 2.6-1.7 2.4 3-.3 3 .3-1.8-2.4-1.2-2.6zM641.1 8.3L640 11l-1.7 2.3 3-.2 2.8.3-1.6-2.4-1.3-2.6zM648.6 8.3l-1.3 2.6-1.7 2.4 3-.3 3 .3-1.8-2.4-1.2-2.6zM656 8.3l-1.2 2.6-1.7 2.4 3-.3 2.9.3-1.7-2.4-1.3-2.6zM663.5 8.3l-1.3 2.6-1.7 2.4 3-.3 3 .3-1.7-2.4-1.3-2.6zM671 8.7l-1.1 2.3-1.5 2 2.6-.2 2.5.3L672 11l-1-2.3zM678.4 8.3l-1.2 2.6-1.7 2.4 3-.3 2.9.3-1.7-2.4-1.3-2.6zM70.5 14.6l-1.2 2.6-1.7 2.4 3-.3 2.9.3-1.7-2.4-1.3-2.6zM78 14.6l-1.3 2.6-1.7 2.4 3-.3 3 .3-1.8-2.4-1.2-2.6zM85.5 14.6l-1.3 2.6-1.7 2.4 3-.3 2.9.3-1.7-2.4-1.3-2.6zM93 14.6l-1.3 2.6-1.7 2.4 3-.3 2.9.3-1.7-2.4-1.3-2.6zM100.4 14.6L99 17.2l-1.7 2.4 3-.3 3 .3-1.8-2.4-1.2-2.6zM107.8 14.6l-1.2 2.6-1.7 2.4 3-.3 2.9.3-1.7-2.4-1.3-2.6zM115.3 14.6l-1.3 2.6-1.7 2.4 3-.3 3 .3-1.8-2.4-1.2-2.6zM122.8 14.6l-1.3 2.6-1.7 2.4 3-.3 2.9.3-1.7-2.4-1.3-2.6zM130.2 14.6l-1.2 2.6-1.7 2.4 3-.3 2.8.3-1.6-2.4-1.3-2.6zM137.7 14.6l-1.3 2.6-1.7 2.4 3-.3 3 .3-1.8-2.4-1.2-2.6zM160 14.6l-1.2 2.6-1.7 2.4 3-.3 2.9.3-1.7-2.4-1.3-2.6zM167.5 14.6l-1.3 2.6-1.6 2.4 2.9-.3 3 .3-1.8-2.4-1.2-2.6zM175 14.6l-1.3 2.6-1.7 2.4 3-.3 3 .3-1.8-2.4-1.2-2.6zM182.4 14.6l-1.2 2.6-1.7 2.4 3-.3 2.9.3-1.7-2.4-1.3-2.6zM189.9 14.6l-1.3 2.6-1.7 2.4 3-.3 3 .3-1.8-2.4-1.2-2.6zM197.3 14.6l-1.2 2.6-1.7 2.4 3-.3 2.9.3-1.7-2.4-1.3-2.6zM219.7 18zM227.2 14.8l-1.2 2.5-1.6 2.2 2.8-.3 2.7.3-1.6-2.2-1.1-2.5zM346.5 15l-1 2.3-1.6 2 2.6-.1 2.6.2-1.5-2-1-2.4zM354 14.6l-1.3 2.6-1.7 2.4 3-.3 3 .3-1.8-2.4-1.2-2.6zM361.4 14.6l-1.2 2.6-1.7 2.4 3-.3 2.9.3-1.7-2.4-1.3-2.6zM368.9 14.6l-1.3 2.6-1.7 2.4 3-.3 3 .3-1.8-2.4-1.2-2.6zM376.3 14.6l-1.2 2.6-1.7 2.4 3-.3 2.9.3-1.7-2.4-1.3-2.6zM383.8 14.6l-1.3 2.6-1.6 2.4 2.9-.3 3 .3-1.7-2.4-1.3-2.6zM391.3 14.6l-1.3 2.6-1.7 2.4 3-.3 2.9.3-1.7-2.4-1.2-2.6zM398.7 14.6l-1.2 2.6-1.7 2.4 3-.3 2.9.3-1.7-2.4-1.3-2.6zM406.2 14.6l-1.3 2.6-1.7 2.4 3-.3 3 .3-1.8-2.4-1.2-2.6zM413.6 14.6l-1.2 2.6-1.7 2.4 3-.3 2.9.3-1.7-2.4-1.3-2.6zM421.1 14.6l-1.3 2.6-1.7 2.4 3-.3 3 .3-1.8-2.4-1.2-2.6zM428.6 14.6l-1.3 2.6-1.7 2.4 3-.3 2.9.3-1.7-2.4-1.3-2.6zM436 14.6l-1.2 2.6-1.7 2.4 3-.3 2.9.3-1.7-2.4-1.3-2.6zM443.5 14.7l-1.2 2.6-1.7 2.2 2.9-.2 2.8.2-1.6-2.3-1.2-2.5zM451 14.6l-1.3 2.6-1.7 2.4 3-.3 2.9.3-1.7-2.4-1.3-2.6zM458.4 14.6l-1.3 2.6-1.7 2.4 3-.3 3 .3-1.8-2.4-1.2-2.6zM465.9 14.6l-1.3 2.6-1.7 2.4 3-.3 2.9.3-1.7-2.4-1.3-2.6zM473.3 14.6l-1.3 2.6-1.6 2.4 3-.3 2.9.3-1.7-2.4-1.3-2.6zM480.8 14.6l-1.3 2.6-1.7 2.4 3-.3 3 .3-1.8-2.4-1.2-2.6zM488.2 14.6l-1.2 2.6-1.7 2.4 3-.3 2.9.3-1.7-2.4-1.3-2.6zM495.7 14.6l-1.3 2.6-1.7 2.4 3-.3 3 .3-1.8-2.4-1.2-2.6zM503.1 14.6l-1.2 2.6-1.7 2.4 3-.3 2.9.3-1.7-2.4-1.3-2.6zM510.6 14.6l-1.3 2.6-1.7 2.4 3-.3 3 .3-1.8-2.4-1.2-2.6zM518 14.6l-1.2 2.6-1.7 2.4 3-.3 2.9.3-1.7-2.4-1.2-2.6zM525.5 14.6l-1.2 2.6-1.7 2.4 3-.3 2.9.3-1.7-2.4-1.3-2.6zM533 14.6l-1.3 2.6-1.7 2.4 3-.3 3 .3-1.8-2.4-1.2-2.6zM540.4 14.6l-1.2 2.6-1.7 2.4 3-.3 2.9.3-1.7-2.4-1.3-2.6zM547.9 14.6l-1.3 2.6-1.6 2.4 2.9-.3 3 .3-1.8-2.4-1.2-2.6zM555.4 14.6l-1.3 2.6-1.7 2.4 3-.3 2.9.3-1.7-2.4-1.3-2.6zM562.8 14.6l-1.2 2.6-1.7 2.4 3-.3 2.9.3-1.7-2.4-1.3-2.6zM570.3 14.6l-1.3 2.6-1.7 2.4 3-.3 3 .3-1.8-2.4-1.2-2.6zM577.7 14.6l-1.2 2.6-1.7 2.4 3-.3 2.9.3-1.7-2.4-1.3-2.6zM585.2 14.6l-1.3 2.6-1.7 2.4 3-.3 3 .3-1.8-2.4-1.2-2.6zM592.6 14.6l-1.2 2.6-1.7 2.4 3-.3 2.9.3-1.7-2.4-1.3-2.6zM600.1 14.6l-1.3 2.6-1.6 2.4 2.9-.3 3 .3-1.7-2.4-1.3-2.6zM607.6 14.6l-1.3 2.6-1.7 2.4 3-.3 3 .3-1.8-2.4-1.2-2.6zM615 14.6l-1.2 2.6-1.7 2.4 3-.3 2.9.3-1.7-2.4-1.3-2.6zM622.5 14.6l-1.3 2.6-1.7 2.4 3-.3 3 .3-1.8-2.4-1.2-2.6zM630 14.6l-1.3 2.6-1.7 2.4 3-.3 2.9.3-1.7-2.4-1.3-2.6zM637.4 14.6l-1.3 2.6-1.6 2.4 2.9-.3 3 .3-1.8-2.4-1.2-2.6zM644.9 14.6l-1.3 2.6-1.7 2.4 3-.3 2.9.3-1.7-2.4-1.2-2.6zM652.3 14.6l-1.2 2.6-1.7 2.4 3-.3 2.9.3-1.7-2.4-1.3-2.6zM659.8 14.6l-1.3 2.6-1.7 2.4 3-.3 3 .3-1.8-2.4-1.2-2.6zM667.2 14.6l-1.2 2.6-1.7 2.4 3-.3 2.9.3-1.7-2.4-1.3-2.6zM66.8 21l-1.2 2.6-1.7 2.3 3-.2 2.8.2-1.6-2.3-1.3-2.7zM74.3 21L73 23.5l-1.7 2.3 3-.2 3 .2-1.8-2.3-1.2-2.7zM81.7 21l-1.2 2.6-1.7 2.3 3-.2 2.9.2-1.7-2.3-1.3-2.7zM89.2 21l-1.3 2.6-1.7 2.3 3-.2 3 .2-1.8-2.3-1.2-2.7zM96.6 21l-1.2 2.6-1.7 2.3 3-.2 2.9.2-1.7-2.3-1.3-2.7zM104.1 21l-1.3 2.6-1.6 2.3 2.9-.2 3 .2-1.7-2.3-1.3-2.7zM111.6 21l-1.3 2.6-1.7 2.3 3-.2 3 .2-1.8-2.3-1.2-2.7zM119 21l-1.2 2.6-1.7 2.3 3-.2 2.9.2-1.7-2.3-1.3-2.7zM126.5 21l-1.3 2.6-1.7 2.3 3-.2 3 .2-1.8-2.3-1.2-2.7zM134 21l-1.3 2.6-1.7 2.3 3-.2 2.9.2-1.7-2.3-1.3-2.7zM141.4 21l-1.3 2.6-1.7 2.3 3-.2 3 .2-1.8-2.3-1.2-2.7zM148.8 23.6l-.2.5-.3.4h1.1l-.3-.4-.3-.5zM156.3 21l-1.2 2.6-1.6 2.3 2.8-.3 2.9.3-1.7-2.3-1.2-2.6zM171.2 21l-1.2 2.6-1.7 2.3 3-.2 2.9.2-1.7-2.3-1.3-2.7zM178.7 21l-1.2 2.6-1.7 2.3 2.9-.3 2.8.3-1.6-2.3-1.2-2.6zM186.2 21l-1.3 2.6-1.7 2.3 3-.2 2.9.2-1.7-2.3-1.3-2.7zM193.6 21l-1.3 2.6-1.6 2.3 3-.2 2.9.2-1.7-2.3-1.3-2.7zM201 24.2zM208.5 22.4l-.7 1.5-1 1.3 1.7-.2 1.7.2-1-1.3-.7-1.5zM350.2 22.5l-.6 1.4-1 1.2 1.6-.1 1.6.1-1-1.2-.6-1.4zM357.7 21l-1.3 2.6-1.6 2.3 2.9-.2 3 .2-1.8-2.3-1.2-2.7zM365.1 21l-1.2 2.6-1.7 2.3 3-.2 2.9.2-1.7-2.3-1.3-2.7zM372.6 21l-1.2 2.6-1.7 2.3 3-.2 2.9.2-1.7-2.3-1.3-2.7zM380 21l-1.1 2.6-1.7 2.3 2.9-.3 2.8.3-1.6-2.3L380 21zM387.5 21l-1.2 2.6-1.7 2.3 3-.2 2.9.2-1.7-2.3-1.3-2.7zM395 21l-1.3 2.6-1.7 2.3 3-.2 3 .2-1.8-2.3-1.2-2.7zM402.4 21l-1.2 2.6-1.7 2.3 3-.2 2.9.2-1.7-2.3-1.3-2.7zM410 21l-1.4 2.6-1.6 2.3 3-.2 2.9.2-1.7-2.3-1.3-2.7zM417.4 21l-1.3 2.6-1.7 2.3 3-.2 3 .2-1.8-2.3-1.2-2.7zM432.3 21l-1.3 2.6-1.7 2.3 3-.2 3 .2-1.8-2.3-1.2-2.7zM439.7 23.7l-.1.4-.3.4h.9l-.3-.4-.2-.4zM447.2 21l-1.3 2.6-1.6 2.3 2.9-.2 3 .2-1.8-2.3-1.2-2.7zM454.7 21l-1.3 2.6-1.7 2.3 3-.2 3 .2-1.8-2.3-1.2-2.7zM462.1 21l-1.2 2.6-1.7 2.3 3-.2 2.9.2-1.7-2.3-1.3-2.7zM477 21.7l-.9 2-1.3 1.8 2.2-.2 2.3.2-1.3-1.8-1-2zM484.5 21l-1.3 2.6-1.6 2.3 2.9-.2 3 .2-1.8-2.3-1.2-2.7zM492 21l-1.3 2.6-1.7 2.3 3-.2 2.9.2-1.7-2.3-1.3-2.7zM499.4 21l-1.2 2.6-1.7 2.3 3-.2 2.9.2-1.7-2.3-1.3-2.7zM506.9 21l-1.3 2.6-1.7 2.3 3-.2 3 .2-1.8-2.3-1.2-2.7zM514.3 21l-1.2 2.6-1.7 2.3 3-.2 2.9.2-1.7-2.3-1.3-2.7zM521.8 21l-1.3 2.6-1.7 2.3 3-.2 3 .2-1.8-2.3-1.2-2.7zM529.3 21l-1.3 2.6-1.7 2.3 3-.2 2.9.2-1.7-2.3-1.3-2.7zM536.7 21l-1.3 2.6-1.6 2.3 2.9-.2 3 .2-1.7-2.3-1.3-2.7zM544.2 21l-1.3 2.6-1.7 2.3 3-.2 3 .2-1.8-2.3-1.2-2.7zM551.6 21l-1.2 2.6-1.7 2.3 3-.2 2.9.2-1.7-2.3-1.3-2.7zM559 21l-1.2 2.6-1.7 2.3 3-.2 3 .2-1.8-2.3-1.2-2.7zM566.5 21l-1.2 2.6-1.7 2.3 3-.3 2.9.3-1.7-2.3-1.3-2.6zM574 21l-1.3 2.6-1.7 2.3 3-.2 3 .2-1.8-2.3-1.2-2.7zM581.5 21l-1.3 2.6-1.7 2.3 3-.2 2.9.2-1.7-2.3-1.2-2.7zM589 21l-1.3 2.6-1.7 2.3 3-.2 2.9.2-1.7-2.3-1.3-2.7zM596.4 21l-1.3 2.6-1.7 2.3 3-.2 3 .2-1.8-2.3-1.2-2.7zM603.8 21l-1.2 2.6-1.7 2.3 3-.2 2.9.2-1.7-2.3-1.3-2.7zM611.3 21l-1.3 2.6-1.6 2.3 2.9-.2 3 .2-1.8-2.3-1.2-2.7zM618.8 21l-1.3 2.6-1.7 2.3 3-.3 2.9.3-1.7-2.3-1.3-2.6zM626.2 21l-1.2 2.6-1.7 2.3 3-.2 2.9.2-1.7-2.3-1.3-2.7zM633.7 21l-1.3 2.6-1.7 2.3 3-.2 3 .2-1.8-2.3-1.2-2.7zM641.1 21l-1.2 2.6-1.7 2.3 3-.2 2.9.2-1.7-2.3-1.3-2.7zM648.6 21l-1.3 2.6-1.7 2.3 3-.2 3 .2-1.8-2.3-1.2-2.7zM656 21l-1.2 2.6-1.7 2.3 3-.2 2.9.2-1.7-2.3-1.3-2.7zM663.5 21l-1.3 2.6-1.7 2.3 3-.2 3 .2-1.7-2.3-1.3-2.7zM671 21l-1.3 2.6-1.7 2.3 3-.2 3 .2-1.8-2.3-1.2-2.7zM63 27.3l-1.2 2.6-1.7 2.3 3-.2 3 .2-1.8-2.3-1.2-2.6zM70.5 27.3l-1.2 2.6-1.7 2.3 3-.2 2.9.2-1.7-2.3-1.3-2.6zM78 27.3l-1.3 2.6-1.7 2.3 3-.2 3 .2-1.8-2.3-1.2-2.6zM85.5 27.3l-1.3 2.6-1.7 2.3 3-.2 2.9.2-1.7-2.3-1.3-2.6zM93 27.3l-1.3 2.6-1.7 2.3 3-.2 2.9.2-1.7-2.3-1.3-2.6zM100.4 27.3L99 29.9l-1.7 2.3 3-.2 3 .2-1.8-2.3-1.2-2.6zM107.8 27.3l-1.2 2.6-1.7 2.3 3-.2 2.9.2L109 30l-1.3-2.6zM115.3 27.3l-1.3 2.6-1.7 2.3 3-.2 3 .2-1.8-2.3-1.2-2.6zM122.8 27.3l-1.3 2.6-1.7 2.3 3-.2 2.9.2L124 30l-1.3-2.6zM130.2 27.3l-1.2 2.6-1.7 2.3 3-.2 2.8.2-1.6-2.3-1.3-2.6zM137.7 27.3l-1.3 2.6-1.7 2.3 3-.2 3 .2-1.8-2.3-1.2-2.6zM152.6 27.3l-1.3 2.6-1.7 2.3 3-.2 3 .2-1.8-2.3-1.2-2.6zM160 27.3l-1.2 2.6-1.7 2.3 3-.2 2.9.2-1.7-2.3-1.3-2.6zM167.5 28.4l-.8 1.7-1.1 1.6 1.9-.2 2 .2-1.2-1.6-.8-1.7zM175 27.3l-1.3 2.6-1.7 2.3 3-.2 3 .2-1.8-2.3-1.2-2.6zM182.4 27.3l-1.2 2.6-1.7 2.3 3-.2 2.9.2-1.7-2.3-1.3-2.6zM331.6 29l-.6 1.2-.9 1.2 1.5-.1 1.5.1-.9-1.2-.6-1.3zM339 27.3l-1.2 2.6-1.7 2.3 3-.2 2.9.2-1.7-2.3-1.3-2.6zM346.5 29l-.5 1.3-.8 1 1.3-.1 1.4.1-.8-1-.6-1.2zM354 27.3l-1.3 2.6-1.7 2.3 3-.2 3 .2-1.8-2.3-1.2-2.6zM383.8 27.3l-1.3 2.6-1.6 2.3 2.9-.2 3 .2L385 30l-1.3-2.6zM391.3 30.3l-.1.2-.2.2h.5l-.1-.2-.1-.2zM398.7 27.3l-1.2 2.6-1.7 2.3 3-.2 2.9.2L400 30l-1.3-2.6zM406.2 27.3l-1.3 2.6-1.6 2.3 2.9-.2 2.9.2-1.7-2.3-1.2-2.6zM413.6 27.3l-1.2 2.6-1.7 2.3 3-.2 2.9.2-1.7-2.3-1.3-2.6zM451 27.4l-1.3 2.5-1.6 2.3 2.8-.3 2.9.3-1.7-2.3-1.2-2.5zM458.4 27.3l-1.3 2.6-1.7 2.3 3-.2 3 .2-1.8-2.3-1.2-2.6zM480.8 27.3l-1.3 2.6-1.7 2.3 3-.2 3 .2L482 30l-1.2-2.6zM488.2 27.3l-1.2 2.6-1.7 2.3 3-.2 2.9.2-1.7-2.3-1.3-2.6zM495.7 27.3l-1.3 2.6-1.7 2.3 3-.2 3 .2-1.8-2.3-1.2-2.6zM503.1 27.3l-1.2 2.6-1.7 2.3 3-.2 2.9.2-1.7-2.3-1.3-2.6zM510.6 27.3l-1.3 2.6-1.7 2.3 3-.2 3 .2-1.8-2.3-1.2-2.6zM518 27.3l-1.2 2.6-1.7 2.3 3-.2 2.9.2-1.7-2.3-1.2-2.6zM525.5 27.3l-1.2 2.6-1.7 2.3 3-.2 2.9.2-1.7-2.3-1.3-2.6zM533 27.3l-1.3 2.6-1.6 2.3 2.9-.2 2.9.2-1.7-2.3-1.2-2.6zM540.4 27.3l-1.2 2.6-1.7 2.3 3-.2 2.9.2-1.7-2.3-1.3-2.6zM547.9 27.3l-1.3 2.6-1.6 2.3 2.9-.2 3 .2L549 30l-1.2-2.6zM555.4 27.3l-1.3 2.6-1.7 2.3 3-.2 2.9.2-1.7-2.3-1.3-2.6zM562.8 27.3l-1.2 2.6-1.7 2.3 3-.2 2.9.2L564 30l-1.3-2.6zM570.3 27.3l-1.3 2.6-1.7 2.3 3-.2 3 .2-1.8-2.3-1.2-2.6zM577.7 27.3l-1.2 2.6-1.7 2.3 3-.2 2.9.2L579 30l-1.3-2.6zM585.2 27.3l-1.3 2.6-1.7 2.3 3-.2 3 .2-1.8-2.3-1.2-2.6zM592.6 27.3l-1.2 2.6-1.7 2.3 3-.2 2.9.2-1.7-2.3-1.3-2.6zM600.1 27.3l-1.3 2.6-1.6 2.3 2.9-.2 3 .2-1.7-2.3-1.3-2.6zM607.6 27.3l-1.3 2.6-1.7 2.3 3-.2 3 .2-1.8-2.3-1.2-2.6zM615 27.3l-1.2 2.6-1.7 2.3 3-.2 2.9.2-1.7-2.3-1.3-2.6zM622.5 27.3l-1.3 2.6-1.7 2.3 3-.2 3 .2-1.8-2.3-1.2-2.6zM630 27.3l-1.3 2.6-1.7 2.3 3-.2 2.9.2-1.7-2.3-1.3-2.6zM637.4 27.3l-1.3 2.6-1.6 2.3 2.9-.2 3 .2-1.8-2.3-1.2-2.6zM644.9 27.3l-1.3 2.6-1.7 2.3 3-.2 2.9.2-1.7-2.3-1.2-2.6zM652.3 27.3l-1.2 2.6-1.7 2.3 3-.2 2.9.2-1.7-2.3-1.3-2.6zM659.8 27.3l-1.3 2.6-1.7 2.3 3-.2 3 .2L661 30l-1.2-2.6zM667.2 27.3l-1.2 2.6-1.7 2.3 3-.2 2.9.2-1.7-2.3-1.3-2.6zM689.6 27.3l-1.3 2.6-1.6 2.3 3-.2 2.8.2L691 30l-1.3-2.6zM59.4 33.6L58 36.2l-1.7 2.4 3-.3 2.9.3-1.7-2.4-1.3-2.6zM66.8 33.6l-1.2 2.6-1.7 2.4 3-.3 2.8.3-1.6-2.4-1.3-2.6zM74.3 33.6L73 36.2l-1.7 2.4 3-.3 3 .3-1.8-2.4-1.2-2.6zM81.7 33.6l-1.2 2.6-1.7 2.4 3-.3 2.9.3-1.7-2.4-1.3-2.6zM89.2 33.6l-1.3 2.6-1.7 2.4 3-.3 3 .3-1.8-2.4-1.2-2.6zM96.6 33.6l-1.2 2.6-1.7 2.4 3-.3 2.9.3-1.7-2.4-1.3-2.6zM104.1 33.6l-1.3 2.6-1.6 2.4 2.9-.3 3 .3-1.7-2.4-1.3-2.6zM111.6 33.6l-1.3 2.6-1.7 2.4 3-.3 3 .3-1.8-2.4-1.2-2.6zM119 33.6l-1.2 2.6-1.7 2.4 3-.3 2.9.3-1.7-2.4-1.3-2.6zM126.5 33.6l-1.3 2.6-1.7 2.4 3-.3 3 .3-1.8-2.4-1.2-2.6zM134 33.6l-1.3 2.6-1.7 2.4 3-.3 2.9.3-1.7-2.4-1.3-2.6zM141.4 33.6l-1.3 2.6-1.7 2.4 3-.3 3 .3-1.8-2.4-1.2-2.6zM148.8 33.6l-1.2 2.6-1.7 2.4 3-.3 2.9.3-1.7-2.4-1.3-2.6zM156.3 33.6l-1.2 2.6-1.7 2.4 3-.3 2.9.3-1.7-2.4-1.3-2.6zM163.8 33.6l-1.3 2.6-1.7 2.4 3-.3 3 .3-1.8-2.4-1.2-2.6zM171.2 33.6l-1.2 2.6-1.7 2.4 3-.3 2.9.3-1.7-2.4-1.3-2.6zM335.3 33.6l-1.2 2.6-1.7 2.4 3-.3 2.9.3-1.7-2.4-1.3-2.6zM342.8 33.6l-1.3 2.6-1.7 2.4 3-.3 3 .3-1.8-2.4-1.2-2.6zM350.2 33.6l-1.2 2.6-1.7 2.4 3-.3 2.9.3-1.7-2.4-1.3-2.6zM372.6 36.3l-.2.5-.3.4h1.1l-.4-.4-.2-.5zM387.5 33.6l-1.2 2.6-1.7 2.4 3-.3 2.9.3-1.7-2.4-1.3-2.6zM402.4 33.6l-1.2 2.6-1.6 2.3 2.8-.2 3 .2-1.7-2.3-1.3-2.6zM410 36.5l-.3.3-.2.3h.8l-.2-.3-.2-.3zM417.4 36.6l-.1.2-.2.3h.6l-.2-.3-.1-.2zM424.8 33.6l-1.2 2.6-1.7 2.4 3-.3 2.9.3-1.7-2.4-1.3-2.6zM432.3 33.6l-1.3 2.6-1.7 2.4 3-.3 3 .3-1.8-2.4-1.2-2.6zM439.7 33.6l-1.2 2.6-1.7 2.4 3-.3 2.9.3-1.7-2.4-1.3-2.6zM447.2 35.1l-.6 1.4-1 1.3 1.6-.2 1.6.2-1-1.3-.6-1.4zM454.7 33.6l-1.3 2.6-1.7 2.4 3-.3 3 .3-1.8-2.4-1.2-2.6zM462.1 33.6l-1.2 2.6-1.7 2.4 3-.3 2.9.3-1.7-2.4-1.3-2.6zM469.6 35l-.7 1.5-1 1.3 1.7-.1 1.6.1-1-1.3-.6-1.4zM484.5 33.6l-1.3 2.6-1.6 2.4 2.9-.3 3 .3-1.8-2.4-1.2-2.6zM492 33.6l-1.3 2.6-1.7 2.4 3-.3 2.9.3-1.7-2.4-1.3-2.6zM499.4 33.6l-1.2 2.6-1.7 2.4 3-.3 2.8.3-1.6-2.4-1.3-2.6zM506.9 33.6l-1.3 2.6-1.7 2.4 3-.3 3 .3-1.8-2.4-1.2-2.6zM514.3 33.6l-1.2 2.6-1.7 2.4 3-.3 2.9.3-1.7-2.4-1.3-2.6zM521.8 33.6l-1.3 2.6-1.7 2.4 3-.3 3 .3-1.8-2.4-1.2-2.6zM529.3 33.6l-1.3 2.6-1.7 2.4 3-.3 2.9.3-1.7-2.4-1.3-2.6zM536.7 33.6l-1.2 2.6-1.7 2.3 2.9-.2 3 .3-1.8-2.4-1.2-2.6zM544.2 33.6l-1.3 2.6-1.7 2.4 3-.3 3 .3-1.8-2.4-1.2-2.6zM551.6 33.6l-1.2 2.6-1.7 2.4 3-.3 2.9.3-1.7-2.4-1.3-2.6zM559 33.6l-1.2 2.6-1.7 2.4 3-.3 3 .3-1.8-2.4-1.2-2.6zM566.5 33.6l-1.2 2.6-1.7 2.4 3-.3 2.9.3-1.7-2.4-1.3-2.6zM574 33.6l-1.3 2.6-1.7 2.4 3-.3 3 .3-1.8-2.4-1.2-2.6zM581.5 33.6l-1.3 2.6-1.7 2.4 3-.3 2.9.3-1.7-2.4-1.2-2.6zM589 33.6l-1.3 2.6-1.7 2.4 3-.3 2.9.3-1.7-2.4-1.3-2.6zM596.4 33.6l-1.3 2.6-1.7 2.4 3-.3 3 .3-1.8-2.4-1.2-2.6zM603.8 33.6l-1.2 2.6-1.7 2.4 3-.3 2.9.3-1.7-2.4-1.3-2.6zM611.3 33.6l-1.3 2.6-1.6 2.4 2.9-.3 3 .3-1.8-2.4-1.2-2.6zM618.8 33.6l-1.3 2.6-1.7 2.4 3-.3 2.9.3-1.7-2.4-1.3-2.6zM626.2 33.6l-1.2 2.6-1.7 2.4 3-.3 2.9.3-1.7-2.4-1.3-2.6zM633.7 33.6l-1.3 2.6-1.7 2.4 3-.3 3 .3-1.8-2.4-1.2-2.6zM641.1 36.3l-.2.5-.3.4h1l-.3-.4-.2-.5zM648.6 33.6l-1.3 2.6-1.7 2.4 3-.3 3 .3-1.8-2.4-1.2-2.6zM656 33.6l-1.2 2.6-1.7 2.4 3-.3 2.9.3-1.7-2.4-1.3-2.6zM55.6 39.9l-1.2 2.6-1.7 2.4 3-.3 2.9.3-1.7-2.4-1.3-2.6zM63 39.9l-1.2 2.6-1.7 2.4 3-.3 3 .3-1.8-2.4-1.2-2.6zM70.5 39.9l-1.2 2.6-1.7 2.4 3-.3 2.9.3-1.7-2.4-1.3-2.6zM78 39.9l-1.3 2.6L75 45l3-.3 3 .3-1.8-2.4L78 40zM85.5 39.9l-1.3 2.6-1.7 2.4 3-.3 2.9.3-1.7-2.4-1.3-2.6zM93 39.9l-1.3 2.6L90 45l3-.3 2.9.3-1.7-2.4-1.3-2.6zM100.4 39.9L99 42.5 97.4 45l3-.3 3 .3-1.8-2.4-1.2-2.6zM107.8 39.9l-1.2 2.6-1.7 2.4 3-.3 2.9.3-1.7-2.4-1.3-2.6zM115.3 39.9l-1.3 2.6-1.7 2.4 3-.3 3 .3-1.8-2.4-1.2-2.6zM122.8 39.9l-1.3 2.6-1.7 2.4 3-.3 2.9.3-1.7-2.4-1.3-2.6zM130.2 39.9l-1.2 2.6-1.7 2.4 3-.3 2.8.3-1.6-2.4-1.3-2.6zM137.7 39.9l-1.3 2.6-1.7 2.4 3-.3 3 .3-1.8-2.4-1.2-2.6zM145.1 39.9l-1.2 2.6-1.7 2.4 3-.3 2.9.3-1.7-2.4L145 40zM152.6 39.9l-1.3 2.6-1.7 2.4 3-.3 3 .3-1.8-2.4-1.2-2.6zM160 39.9l-1.2 2.6L157 45l3-.3 2.9.3-1.7-2.4L160 40zM167.5 40.2l-1.2 2.4-1.5 2.2 2.7-.3 2.7.3-1.5-2.2-1.2-2.4zM331.6 39.9l-1.3 2.6-1.7 2.4 3-.3 3 .3-1.8-2.4-1.2-2.6zM339 39.9l-1.2 2.6-1.7 2.4 3-.3 2.9.3-1.7-2.4L339 40zM346.5 39.9l-1.3 2.6-1.6 2.4 3-.3 2.8.3-1.6-2.4-1.3-2.6zM391.3 41.4l-.7 1.5-1 1.2 1.7-.1 1.6.1-1-1.3-.6-1.4zM406.2 40l-1.2 2.5-1.7 2.3 2.9-.2 2.8.2-1.6-2.3-1.2-2.5zM421.1 39.9l-1.3 2.6-1.7 2.4 3-.3 3 .3-1.8-2.4-1.2-2.6zM428.6 39.9l-1.3 2.6-1.7 2.4 3-.3 2.9.3-1.7-2.4-1.3-2.6zM436 39.9l-1.2 2.6L433 45l3-.3 2.9.3-1.7-2.4L436 40zM443.5 39.9l-1.3 2.6-1.7 2.4 3-.3 3 .3-1.8-2.4-1.2-2.6zM451 39.9l-1.3 2.6L448 45l3-.3 2.9.3-1.7-2.4-1.3-2.6zM458.4 40l-1.2 2.5-1.7 2.3 2.9-.2 2.9.2-1.7-2.3-1.2-2.5zM465.9 39.9l-1.3 2.6-1.7 2.4 3-.3 2.9.3-1.7-2.4-1.3-2.6zM488.2 39.9l-1.2 2.6-1.7 2.4 3-.3 2.9.3-1.7-2.4-1.3-2.6zM495.7 39.9l-1.3 2.6-1.7 2.4 3-.3 3 .3-1.8-2.4-1.2-2.6zM503.1 39.9l-1.2 2.6-1.7 2.4 3-.3 2.9.3-1.7-2.4L503 40zM510.6 39.9l-1.3 2.6-1.7 2.4 3-.3 3 .3-1.8-2.4-1.2-2.6zM518 39.9l-1.2 2.6-1.7 2.4 3-.3 2.9.3-1.7-2.4-1.2-2.6zM525.5 39.9l-1.2 2.6-1.7 2.4 3-.3 2.9.3-1.7-2.4-1.3-2.6zM533 39.9l-1.3 2.6L530 45l3-.3 3 .3-1.8-2.4L533 40zM540.4 39.9l-1.2 2.6-1.7 2.4 3-.3 2.9.3-1.7-2.4-1.3-2.6zM547.9 39.9l-1.3 2.6L545 45l2.9-.3 3 .3-1.8-2.4L548 40zM555.4 39.9l-1.3 2.6-1.7 2.4 3-.3 2.9.3-1.7-2.4-1.3-2.6zM562.8 39.9l-1.2 2.6-1.7 2.4 3-.3 2.9.3-1.7-2.4-1.3-2.6zM570.3 39.9l-1.3 2.6-1.7 2.4 3-.3 3 .3-1.8-2.4-1.2-2.6zM577.7 39.9l-1.2 2.6-1.7 2.4 3-.3 2.9.3-1.7-2.4-1.3-2.6zM585.2 39.9l-1.3 2.6-1.7 2.4 3-.3 3 .3-1.8-2.4-1.2-2.6zM592.6 39.9l-1.2 2.6-1.7 2.4 3-.3 2.9.3-1.7-2.4-1.3-2.6zM600.1 39.9l-1.3 2.6-1.6 2.4 2.9-.3 3 .3-1.7-2.4L600 40zM607.6 39.9l-1.3 2.6-1.7 2.4 3-.3 3 .3-1.8-2.4-1.2-2.6zM615 39.9l-1.2 2.6L612 45l3-.3 2.9.3-1.7-2.4L615 40zM622.5 39.9l-1.3 2.6-1.7 2.4 3-.3 3 .3-1.8-2.4-1.2-2.6zM630 39.9l-1.3 2.6L627 45l3-.3 2.9.3-1.7-2.4-1.3-2.6zM659.8 39.9l-1.3 2.6-1.7 2.4 3-.3 3 .3-1.8-2.4-1.2-2.6zM689.6 41.1l-.8 1.7-1 1.5 1.8-.2 1.9.2-1.1-1.5-.8-1.6zM59.4 46.2L58 48.8l-1.7 2.4 3-.2 2.9.2-1.7-2.4-1.3-2.6zM66.8 46.2l-1.2 2.6-1.7 2.4 3-.2 2.8.2-1.6-2.4-1.3-2.6zM74.3 46.2L73 48.8l-1.7 2.4 3-.2 3 .2-1.8-2.4-1.2-2.6zM81.7 46.2l-1.2 2.6-1.7 2.4 3-.2 2.9.2-1.7-2.4-1.3-2.6zM89.2 46.2l-1.3 2.6-1.7 2.4 3-.2 3 .2-1.8-2.4-1.2-2.6zM96.6 46.2l-1.2 2.6-1.7 2.4 3-.2 2.9.2-1.7-2.4-1.3-2.6zM104.1 46.2l-1.3 2.6-1.6 2.4 2.9-.2 3 .2-1.7-2.4-1.3-2.6zM111.6 46.2l-1.3 2.6-1.7 2.4 3-.2 3 .2-1.8-2.4-1.2-2.6zM119 46.2l-1.2 2.6-1.7 2.4 3-.2 2.9.2-1.7-2.4-1.3-2.6zM126.5 46.2l-1.3 2.6-1.7 2.4 3-.2 3 .2-1.8-2.4-1.2-2.6zM134 46.2l-1.3 2.6-1.7 2.4 3-.2 2.9.2-1.7-2.4-1.3-2.6zM141.4 46.2l-1.3 2.6-1.7 2.4 3-.2 3 .2-1.8-2.4-1.2-2.6zM148.8 46.2l-1.2 2.6-1.7 2.4 3-.2 2.9.2-1.7-2.4-1.3-2.6zM156.3 46.3l-1.2 2.6-1.7 2.3 3-.3 2.8.3-1.7-2.4-1.2-2.5zM163.8 46.2l-1.3 2.6-1.7 2.4 3-.2 3 .2-1.8-2.4-1.2-2.6zM357.7 49.4v.1l-.1.1h.2l-.1-.2zM365.1 48.2l-.5 1-.7 1h2.5l-.8-1-.5-1zM372.6 46.2l-1.2 2.6-1.7 2.4 3-.2 2.8.2-1.6-2.4-1.3-2.6zM424.8 46.2l-1.2 2.6-1.7 2.4 3-.2 2.9.2-1.7-2.4-1.3-2.6zM432.3 46.2l-1.3 2.6-1.7 2.4 3-.2 3 .2-1.8-2.4-1.2-2.6zM439.7 49.1l-.1.4-.2.3h.7l-.2-.3-.2-.4zM447.2 46.3L446 49l-1.7 2.3 2.9-.3 2.9.3-1.7-2.3-1.2-2.6zM454.7 46.3l-1.3 2.6-1.6 2.3 2.9-.3 2.9.3-1.7-2.4-1.2-2.5zM462.1 46.3l-1.2 2.6-1.7 2.3 3-.3 2.8.3-1.6-2.4-1.3-2.5zM469.6 46.2l-1.3 2.6-1.7 2.4 3-.2 3 .2-1.8-2.4-1.2-2.6zM477 49.4v.2h.1v-.2zM484.5 46.2l-1.3 2.6-1.6 2.4 2.9-.2 3 .2-1.8-2.4-1.2-2.6zM492 46.2l-1.3 2.6-1.7 2.4 3-.2 2.9.2-1.7-2.4-1.3-2.6zM499.4 46.4l-1.2 2.5-1.6 2.2 2.8-.2 2.8.2-1.6-2.2-1.2-2.5zM506.9 46.2l-1.3 2.6-1.7 2.4 3-.2 3 .2-1.8-2.4-1.2-2.6zM514.3 46.2l-1.2 2.6-1.7 2.4 3-.2 2.9.2-1.7-2.4-1.3-2.6zM521.8 46.2l-1.3 2.6-1.7 2.4 3-.2 3 .2-1.8-2.4-1.2-2.6zM529.3 46.3L528 49l-1.6 2.3 2.9-.3 2.8.3-1.6-2.3-1.3-2.6zM536.7 46.2l-1.3 2.6-1.6 2.4 2.9-.2 3 .2-1.7-2.4-1.3-2.6zM544.2 46.2l-1.3 2.6-1.7 2.4 3-.2 3 .2-1.8-2.4-1.2-2.6zM551.6 46.2l-1.2 2.6-1.7 2.4 3-.2 2.9.2-1.7-2.4-1.3-2.6zM559 46.2l-1.2 2.6-1.7 2.4 3-.2 3 .2-1.8-2.4-1.2-2.6zM566.5 46.2l-1.2 2.6-1.7 2.4 3-.2 2.9.2-1.7-2.4-1.3-2.6zM574 46.2l-1.3 2.6-1.7 2.4 3-.2 3 .2-1.8-2.4-1.2-2.6zM581.5 46.2l-1.3 2.6-1.7 2.4 3-.2 2.9.2-1.7-2.4-1.2-2.6zM589 46.2l-1.3 2.6-1.7 2.4 3-.2 2.9.2-1.7-2.4-1.3-2.6zM596.4 46.2l-1.3 2.6-1.7 2.4 3-.2 3 .2-1.8-2.4-1.2-2.6zM603.8 46.2l-1.2 2.6-1.7 2.4 3-.2 2.9.2-1.7-2.4-1.3-2.6zM611.3 46.2l-1.3 2.6-1.6 2.4 2.9-.2 3 .2-1.8-2.4-1.2-2.6zM618.8 46.2l-1.3 2.6-1.7 2.4 3-.2 2.9.2-1.7-2.4-1.3-2.6zM626.2 46.2l-1.2 2.6-1.7 2.4 3-.2 2.9.2-1.7-2.4-1.3-2.6zM633.7 46.2l-1.3 2.6-1.7 2.4 3-.2 3 .2-1.8-2.4-1.2-2.6zM641.1 46.2l-1.2 2.6-1.7 2.4 3-.2 2.9.2-1.7-2.4-1.3-2.6zM663.5 46.2l-1.3 2.6-1.7 2.4 3-.2 3 .2-1.7-2.4-1.3-2.6zM685.9 47.7l-.7 1.5-1 1.3 1.7-.2 1.6.2-1-1.3-.6-1.5zM693.3 46.2l-1.2 2.6-1.7 2.4 3-.2 2.9.2-1.7-2.4-1.3-2.6zM63 52.5l-1.2 2.7-1.7 2.3 3-.2 3 .2-1.8-2.3-1.2-2.7zM70.5 52.5l-1.2 2.7-1.7 2.3 3-.2 2.9.2-1.7-2.3-1.3-2.7zM78 52.5l-1.3 2.7-1.7 2.3 3-.2 3 .2-1.8-2.3-1.2-2.7zM85.5 52.5l-1.3 2.7-1.7 2.3 3-.2 2.9.2-1.7-2.3-1.3-2.7zM93 52.6l-1.3 2.6-1.7 2.3 3-.2 2.8.2-1.6-2.3-1.3-2.6zM100.4 52.5L99 55.3l-1.7 2.3 3-.2 3 .2-1.8-2.3-1.2-2.7zM107.8 52.5l-1.2 2.7-1.7 2.3 3-.2 2.9.2-1.7-2.3-1.3-2.7zM115.3 52.5l-1.3 2.7-1.7 2.3 3-.2 3 .2-1.8-2.3-1.2-2.7zM122.8 52.5l-1.3 2.7-1.7 2.3 3-.2 2.9.2-1.7-2.3-1.3-2.7zM130.2 52.5l-1.2 2.7-1.7 2.3 3-.2 2.8.2-1.6-2.3-1.3-2.7zM137.7 52.5l-1.3 2.7-1.7 2.3 3-.2 3 .2-1.8-2.3-1.2-2.7zM145.1 52.5l-1.2 2.7-1.7 2.3 3-.2 2.9.2-1.7-2.3-1.3-2.7zM152.6 52.5l-1.3 2.7-1.7 2.3 3-.2 3 .2-1.8-2.3-1.2-2.7zM339 52.5l-1.2 2.7-1.7 2.3 3-.2 2.9.2-1.7-2.3-1.3-2.7zM346.5 52.6l-1.2 2.6-1.7 2.3 3-.2 2.8.2-1.6-2.3-1.3-2.6zM354 52.5l-1.3 2.7-1.7 2.3 3-.2 3 .2-1.8-2.3-1.2-2.7zM361.4 52.5l-1.2 2.7-1.7 2.3 3-.2 2.9.2-1.7-2.3-1.3-2.7zM368.9 52.5l-1.3 2.7-1.7 2.3 3-.2 3 .2-1.8-2.3-1.2-2.7zM376.3 55.6v.2l-.2.2h.5l-.2-.2v-.2zM443.5 52.5l-1.3 2.7-1.7 2.3 3-.2 3 .2-1.8-2.3-1.2-2.7zM451 52.6l-1.3 2.6-1.7 2.3 3-.2 2.8.2-1.6-2.3-1.3-2.6zM458.4 52.5l-1.3 2.7-1.7 2.3 3-.2 3 .2-1.8-2.3-1.2-2.7zM465.9 52.5l-1.3 2.7-1.7 2.3 3-.2 2.9.2-1.7-2.3-1.3-2.7zM473.3 52.5l-1.3 2.7-1.6 2.3 3-.2 2.9.2-1.7-2.3-1.3-2.7zM480.8 52.5l-1.3 2.7-1.7 2.3 3-.2 3 .2-1.8-2.3-1.2-2.7zM488.2 52.5l-1.2 2.7-1.7 2.3 3-.2 2.9.2-1.7-2.3-1.3-2.7zM495.7 52.5l-1.3 2.7-1.7 2.3 3-.2 3 .2-1.8-2.3-1.2-2.7zM503.1 52.5l-1.2 2.7-1.7 2.3 3-.2 2.9.2-1.7-2.3-1.3-2.7zM510.6 52.5l-1.3 2.7-1.7 2.3 3-.2 3 .2-1.8-2.3-1.2-2.7zM518 52.5l-1.2 2.7-1.7 2.3 3-.2 2.9.2-1.7-2.3-1.2-2.7zM525.5 52.5l-1.2 2.7-1.7 2.3 3-.2 2.9.2-1.7-2.3-1.3-2.7zM533 52.6l-1.3 2.6-1.7 2.3 3-.2 2.9.2-1.7-2.3-1.2-2.6zM540.4 52.5l-1.2 2.7-1.7 2.3 3-.2 2.9.2-1.7-2.3-1.3-2.7zM547.9 52.5l-1.3 2.7-1.6 2.3 2.9-.2 3 .2-1.8-2.3-1.2-2.7zM555.4 52.5l-1.3 2.7-1.7 2.3 3-.2 2.9.2-1.7-2.3-1.3-2.7zM562.8 52.5l-1.2 2.7-1.7 2.3 3-.2 2.9.2-1.7-2.3-1.3-2.7zM570.3 52.5l-1.3 2.7-1.7 2.3 3-.2 3 .2-1.8-2.3-1.2-2.7zM577.7 52.5l-1.2 2.7-1.7 2.3 3-.2 2.9.2-1.7-2.3-1.3-2.7zM585.2 52.5l-1.3 2.7-1.7 2.3 3-.2 3 .2-1.8-2.3-1.2-2.7zM592.6 52.5l-1.2 2.7-1.7 2.3 3-.2 2.9.2-1.7-2.3-1.3-2.7zM600.1 52.5l-1.3 2.7-1.6 2.3 2.9-.2 3 .2-1.7-2.3-1.3-2.7zM607.6 52.5l-1.3 2.7-1.7 2.3 3-.2 3 .2-1.8-2.3-1.2-2.7zM615 52.5l-1.2 2.7-1.7 2.3 3-.2 2.9.2-1.7-2.3-1.3-2.7zM622.5 52.5l-1.3 2.7-1.7 2.3 3-.2 3 .2-1.8-2.3-1.2-2.7zM630 52.5l-1.3 2.7-1.7 2.3 3-.2 2.9.2-1.7-2.3-1.3-2.7zM637.4 52.5l-1.3 2.7-1.6 2.3 2.9-.2 3 .2-1.8-2.3-1.2-2.7zM644.9 52.5l-1.3 2.7-1.7 2.3 3-.2 2.9.2-1.7-2.3-1.2-2.7zM674.7 53.3l-1 2-1.3 1.9 2.3-.3 2.3.3-1.4-1.9-1-2zM682.1 55.8v.1h.1zM66.8 58.9l-1.2 2.6-1.7 2.4 3-.3 2.8.3-1.6-2.4-1.3-2.6zM74.3 58.9L73 61.5l-1.7 2.4 3-.3 3 .3-1.8-2.4-1.2-2.6zM81.7 58.9l-1.2 2.6-1.7 2.4 3-.3 2.9.3-1.7-2.4-1.3-2.6zM89.2 58.9l-1.3 2.6-1.7 2.4 3-.3 3 .3-1.8-2.4-1.2-2.6zM96.6 58.9l-1.2 2.6-1.7 2.4 3-.3 2.9.3-1.7-2.4-1.3-2.6zM104.1 58.9l-1.3 2.6-1.6 2.4 2.9-.3 3 .3-1.7-2.4-1.3-2.6zM111.6 58.9l-1.3 2.6-1.7 2.4 3-.3 3 .3-1.8-2.4-1.2-2.6zM119 58.9l-1.2 2.6-1.7 2.4 3-.3 2.9.3-1.7-2.4-1.3-2.6zM126.5 58.9l-1.3 2.6-1.7 2.4 3-.3 3 .3-1.8-2.4-1.2-2.6zM134 58.9l-1.3 2.6-1.7 2.4 3-.3 2.9.3-1.7-2.4-1.3-2.6zM141.4 58.9l-1.3 2.6-1.7 2.4 3-.3 3 .3-1.8-2.4-1.2-2.6zM148.8 58.9l-1.2 2.6-1.7 2.4 3-.3 2.9.3-1.7-2.4-1.3-2.6zM335.3 58.9l-1.2 2.6-1.7 2.4 3-.3 2.9.3-1.7-2.4-1.3-2.6zM342.8 58.9l-1.3 2.6-1.7 2.4 3-.3 3 .3-1.8-2.4-1.2-2.6zM350.2 58.9l-1.2 2.6-1.7 2.4 3-.3 2.9.3-1.7-2.4-1.3-2.6zM357.7 58.9l-1.3 2.6-1.6 2.4 2.9-.3 3 .3-1.8-2.4-1.2-2.6zM365.1 58.9l-1.2 2.6-1.7 2.4 3-.3 2.9.3-1.7-2.4-1.3-2.6zM372.6 58.9l-1.2 2.6-1.7 2.4 3-.3 2.9.3-1.7-2.4-1.3-2.6zM380 58.9l-1.2 2.6-1.7 2.4 3-.3 3 .3-1.8-2.4-1.2-2.6zM387.5 59.8l-.9 1.9-1.2 1.7 2.1-.2 2.2.2-1.3-1.7-.9-2zM402.4 58.9l-1.2 2.6-1.7 2.4 3-.3 2.9.3-1.7-2.4-1.3-2.6zM439.7 58.9l-1.2 2.6-1.7 2.4 3-.3 2.9.3-1.7-2.4-1.3-2.6zM447.2 58.9l-1.3 2.6-1.6 2.4 2.9-.3 3 .3-1.8-2.4-1.2-2.6zM454.7 58.9l-1.3 2.6-1.7 2.4 3-.3 3 .3-1.8-2.4-1.2-2.6zM462.1 58.9l-1.2 2.6-1.7 2.4 3-.3 2.9.3-1.7-2.4-1.3-2.6zM469.6 58.9l-1.3 2.6-1.7 2.4 3-.3 3 .3-1.8-2.4-1.2-2.6zM477 58.9l-1.2 2.6-1.7 2.4 3-.3 2.9.3-1.7-2.4-1.3-2.6zM484.5 58.9l-1.3 2.6-1.6 2.4 2.9-.3 3 .3-1.8-2.4-1.2-2.6zM492 58.9l-1.3 2.6-1.7 2.4 3-.3 2.9.3-1.7-2.4-1.3-2.6zM499.4 58.9l-1.2 2.6-1.7 2.4 3-.3 2.9.3-1.7-2.4-1.3-2.6zM506.9 58.9l-1.3 2.6-1.7 2.4 3-.3 3 .3-1.8-2.4-1.2-2.6zM514.3 58.9l-1.2 2.6-1.7 2.4 3-.3 2.9.3-1.7-2.4-1.3-2.6zM521.8 58.9l-1.3 2.6-1.7 2.4 3-.3 3 .3-1.8-2.4-1.2-2.6zM529.3 58.9l-1.3 2.6-1.7 2.4 3-.3 2.9.3-1.7-2.4-1.3-2.6zM536.7 59l-1.2 2.5-1.7 2.3 2.9-.2 3 .2-1.8-2.3-1.2-2.6zM544.2 58.9l-1.3 2.6-1.7 2.4 3-.3 3 .3-1.8-2.4-1.2-2.6zM551.6 58.9l-1.2 2.6-1.7 2.4 3-.3 2.9.3-1.7-2.4-1.3-2.6zM559 58.9l-1.2 2.6-1.7 2.4 3-.3 3 .3-1.8-2.4-1.2-2.6zM566.5 58.9l-1.2 2.6-1.7 2.4 3-.3 2.9.3-1.7-2.4-1.3-2.6zM574 58.9l-1.3 2.6-1.7 2.4 3-.3 3 .3-1.8-2.4-1.2-2.6zM581.5 58.9l-1.3 2.6-1.7 2.4 3-.3 2.9.3-1.7-2.4-1.2-2.6zM589 58.9l-1.3 2.6-1.7 2.4 3-.3 2.9.3-1.7-2.4-1.3-2.6zM596.4 58.9l-1.3 2.6-1.7 2.4 3-.3 3 .3-1.8-2.4-1.2-2.6zM603.8 58.9l-1.2 2.6-1.7 2.4 3-.3 2.9.3-1.7-2.4-1.3-2.6zM611.3 59l-1.3 2.5-1.6 2.3 2.9-.2 3 .2-1.8-2.3-1.2-2.6zM618.8 58.9l-1.3 2.6-1.7 2.4 3-.3 2.9.3-1.7-2.4-1.3-2.6zM626.2 58.9l-1.2 2.6-1.7 2.4 3-.3 2.9.3-1.7-2.4-1.3-2.6zM633.7 58.9l-1.3 2.6-1.7 2.4 3-.3 3 .3-1.8-2.4-1.2-2.6zM641.1 58.9l-1.2 2.6-1.7 2.4 3-.3 2.9.3-1.7-2.4-1.3-2.6zM648.6 58.9l-1.3 2.6-1.7 2.4 3-.3 3 .3-1.8-2.4-1.2-2.6zM63 65.2l-1.2 2.6-1.7 2.4 3-.3 3 .3-1.8-2.4-1.2-2.6zM70.5 65.2l-1.2 2.6-1.7 2.4 3-.3 2.9.3-1.7-2.4-1.3-2.6zM78 65.2l-1.3 2.6-1.7 2.4 3-.3 3 .3-1.8-2.4-1.2-2.6zM85.5 65.2l-1.3 2.6-1.7 2.4 3-.3 2.9.3-1.7-2.4-1.3-2.6zM93 65.2l-1.3 2.6-1.7 2.4 3-.3 2.9.3-1.7-2.4-1.3-2.6zM100.4 65.2L99 67.8l-1.7 2.4 3-.3 3 .3-1.8-2.4-1.2-2.6zM107.8 65.2l-1.2 2.6-1.7 2.4 3-.3 2.9.3-1.7-2.4-1.3-2.6zM115.3 65.5l-1.1 2.4-1.6 2.1 2.7-.2 2.7.2-1.6-2.1-1.1-2.4zM122.8 65.2l-1.3 2.6-1.7 2.4 3-.3 2.9.3-1.7-2.4-1.3-2.6zM137.7 66.6l-.7 1.5-1 1.4 1.7-.2 1.7.2-1-1.4-.7-1.5zM145.1 65.2l-1.2 2.6-1.7 2.4 3-.3 2.9.3-1.7-2.4-1.3-2.6zM331.6 65.2l-1.3 2.6-1.7 2.4 3-.3 3 .3-1.8-2.4-1.2-2.6zM339 65.2l-1.2 2.6-1.7 2.4 3-.3 2.9.3-1.7-2.4-1.3-2.6zM346.5 65.2l-1.3 2.6-1.6 2.4 3-.3 2.8.3-1.6-2.4-1.3-2.6zM354 65.2l-1.3 2.6-1.7 2.4 3-.3 3 .3-1.8-2.4-1.2-2.6zM361.4 65.2l-1.2 2.6-1.7 2.4 3-.3 2.9.3-1.7-2.4-1.3-2.6zM368.9 65.2l-1.3 2.6-1.7 2.4 3-.3 3 .3-1.8-2.4-1.2-2.6zM376.3 65.2l-1.2 2.6-1.7 2.4 3-.3 2.9.3-1.7-2.4-1.3-2.6zM383.8 65.2l-1.3 2.6-1.6 2.4 2.9-.3 3 .3-1.7-2.4-1.3-2.6zM391.3 65.2l-1.3 2.6-1.7 2.4 3-.3 3 .3-1.8-2.4-1.2-2.6zM398.7 65.2l-1.2 2.6-1.7 2.4 3-.3 2.9.3-1.7-2.4-1.3-2.6zM406.2 65.2l-1.3 2.6-1.7 2.4 3-.3 3 .3-1.8-2.4-1.2-2.6zM413.6 65.2l-1.2 2.6-1.7 2.4 3-.3 2.9.3-1.7-2.4-1.3-2.6zM421.1 65.2l-1.3 2.6-1.7 2.4 3-.3 3 .3-1.8-2.4-1.2-2.6zM428.6 65.2l-1.3 2.6-1.7 2.4 3-.3 2.9.3-1.7-2.4-1.3-2.6zM436 65.2l-1.2 2.6-1.7 2.4 3-.3 2.9.3-1.7-2.4-1.3-2.6zM443.5 65.3l-1.2 2.5-1.7 2.3 2.9-.2 2.8.2-1.6-2.3-1.2-2.5zM451 65.2l-1.3 2.6-1.7 2.4 3-.3 2.9.3-1.7-2.4-1.3-2.6zM458.4 65.2l-1.3 2.6-1.7 2.4 3-.3 3 .3-1.8-2.4-1.2-2.6zM465.9 65.2l-1.3 2.6-1.7 2.4 3-.3 2.9.3-1.7-2.4-1.3-2.6zM480.8 65.2l-1.3 2.6-1.7 2.4 3-.3 3 .3-1.8-2.4-1.2-2.6zM488.2 65.2l-1.2 2.6-1.7 2.4 3-.3 2.9.3-1.7-2.4-1.3-2.6zM495.7 65.2l-1.3 2.6-1.7 2.4 3-.3 3 .3-1.8-2.4-1.2-2.6zM503.1 65.2l-1.2 2.6-1.7 2.4 3-.3 2.9.3-1.7-2.4-1.3-2.6zM510.6 65.2l-1.3 2.6-1.7 2.4 3-.3 3 .3-1.8-2.4-1.2-2.6zM518 65.2l-1.2 2.6-1.7 2.4 3-.3 2.9.3-1.7-2.4-1.2-2.6zM525.5 65.2l-1.2 2.6-1.7 2.4 3-.3 2.9.3-1.7-2.4-1.3-2.6zM533 65.2l-1.3 2.6-1.7 2.4 3-.3 3 .3-1.8-2.4-1.2-2.6zM540.4 65.2l-1.2 2.6-1.7 2.4 3-.3 2.9.3-1.7-2.4-1.3-2.6zM547.9 65.2l-1.3 2.6-1.6 2.4 2.9-.3 3 .3-1.8-2.4-1.2-2.6zM555.4 65.2l-1.3 2.6-1.7 2.4 3-.3 2.9.3-1.7-2.4-1.3-2.6zM562.8 65.2l-1.2 2.6-1.7 2.4 3-.3 2.9.3-1.7-2.4-1.3-2.6zM570.3 65.2l-1.3 2.6-1.7 2.4 3-.3 3 .3-1.8-2.4-1.2-2.6zM577.7 65.2l-1.2 2.6-1.7 2.4 3-.3 2.9.3-1.7-2.4-1.3-2.6zM585.2 65.2l-1.3 2.6-1.7 2.4 3-.3 3 .3-1.8-2.4-1.2-2.6zM592.6 65.2l-1.2 2.6-1.7 2.4 3-.3 2.9.3-1.7-2.4-1.3-2.6zM600.1 65.2l-1.3 2.6-1.6 2.4 2.9-.3 3 .3-1.7-2.4-1.3-2.6zM607.6 65.2l-1.3 2.6-1.7 2.4 3-.3 3 .3-1.8-2.4-1.2-2.6zM615 65.2l-1.2 2.6-1.7 2.4 3-.3 2.9.3-1.7-2.4-1.3-2.6zM622.5 65.2l-1.3 2.6-1.7 2.4 3-.3 3 .3-1.8-2.4-1.2-2.6zM630 65.2l-1.3 2.6-1.7 2.4 3-.3 2.9.3-1.7-2.4-1.3-2.6zM637.4 65.2l-1.3 2.6-1.6 2.4 2.9-.3 3 .3-1.8-2.4-1.2-2.6zM644.9 65.2l-1.3 2.6-1.7 2.4 3-.3 2.9.3-1.7-2.4-1.2-2.6zM652.3 65.2l-1.2 2.6-1.7 2.4 3-.3 2.8.3-1.7-2.4-1.2-2.6zM66.8 74.2l-.2.5-.4.5h1.2l-.4-.5-.2-.5zM74.3 71.5L73 74.1l-1.7 2.4 3-.2 3 .2-1.8-2.4-1.2-2.6zM81.7 71.5l-1.2 2.6-1.7 2.4 3-.2 2.9.2-1.7-2.4-1.3-2.6zM89.2 71.5l-1.3 2.6-1.7 2.4 3-.2 3 .2-1.8-2.4-1.2-2.6zM96.6 71.5l-1.2 2.6-1.7 2.4 3-.2 2.9.2-1.7-2.4-1.3-2.6zM104.1 71.5l-1.3 2.6-1.6 2.4 2.9-.2 3 .2-1.7-2.4-1.3-2.6zM320.4 72.5l-.9 1.8-1.2 1.7 2.1-.2 2.1.2-1.2-1.7-.9-1.8zM327.9 71.6l-1.3 2.6-1.6 2.3 2.9-.3 2.8.3-1.6-2.3-1.2-2.6zM335.3 71.5l-1.2 2.6-1.7 2.4 3-.2 2.9.2-1.7-2.4-1.3-2.6zM342.8 71.5l-1.3 2.6-1.7 2.4 3-.2 3 .2-1.8-2.4-1.2-2.6zM350.2 71.5l-1.2 2.6-1.7 2.4 3-.2 2.9.2-1.7-2.4-1.3-2.6zM357.7 71.5l-1.3 2.6-1.6 2.4 2.9-.2 3 .2-1.8-2.4-1.2-2.6zM365.1 71.5l-1.2 2.6-1.7 2.4 3-.2 2.9.2-1.7-2.4-1.3-2.6zM372.6 71.5l-1.2 2.6-1.7 2.4 3-.2 2.9.2-1.7-2.4-1.3-2.6zM380 71.5l-1.2 2.6-1.7 2.4 3-.2 3 .2-1.8-2.4-1.2-2.6zM387.5 71.5l-1.2 2.6-1.7 2.4 3-.2 2.9.2-1.7-2.4-1.3-2.6zM395 71.5l-1.3 2.6-1.7 2.4 3-.2 3 .2-1.8-2.4-1.2-2.6zM402.4 71.5l-1.2 2.6-1.7 2.4 3-.2 2.9.2-1.7-2.4-1.3-2.6zM410 71.5l-1.4 2.6-1.6 2.4 3-.2 2.9.2-1.7-2.4-1.3-2.6zM417.4 71.5l-1.3 2.6-1.7 2.4 3-.2 3 .2-1.8-2.4-1.2-2.6zM424.8 71.5l-1.2 2.6-1.7 2.4 3-.2 2.9.2-1.7-2.4-1.3-2.6zM432.3 71.5l-1.3 2.6-1.7 2.4 3-.2 3 .2-1.8-2.4-1.2-2.6zM447.2 71.5l-1.3 2.6-1.6 2.4 2.9-.2 3 .2-1.8-2.4-1.2-2.6zM454.7 71.5l-1.3 2.6-1.7 2.4 3-.2 3 .2-1.8-2.4-1.2-2.6zM462.1 71.5l-1.2 2.6-1.7 2.4 3-.2 2.9.2-1.7-2.4-1.3-2.6zM469.6 71.5l-1.3 2.6-1.7 2.4 3-.2 3 .2-1.8-2.4-1.2-2.6zM484.5 71.5l-1.3 2.6-1.6 2.4 2.9-.2 3 .2-1.8-2.4-1.2-2.6zM492 71.5l-1.3 2.6-1.7 2.4 3-.2 2.9.2-1.7-2.4-1.3-2.6zM499.4 71.5l-1.2 2.6-1.7 2.4 3-.2 2.9.2-1.7-2.4-1.3-2.6zM506.9 71.5l-1.3 2.6-1.7 2.4 3-.2 3 .2-1.8-2.4-1.2-2.6zM514.3 71.5l-1.2 2.6-1.7 2.4 3-.2 2.9.2-1.7-2.4-1.3-2.6zM521.8 71.5l-1.3 2.6-1.7 2.4 3-.2 3 .2-1.8-2.4-1.2-2.6zM529.3 71.6l-1.3 2.6-1.6 2.3 2.9-.3 2.8.3-1.6-2.3-1.3-2.6zM536.7 71.5l-1.3 2.6-1.6 2.4 2.9-.2 3 .2-1.7-2.4-1.3-2.6zM544.2 71.5l-1.3 2.6-1.7 2.4 3-.2 3 .2-1.8-2.4-1.2-2.6zM551.6 71.5l-1.2 2.6-1.7 2.4 3-.2 2.9.2-1.7-2.4-1.3-2.6zM559 71.5l-1.2 2.6-1.7 2.4 3-.2 3 .2-1.8-2.4-1.2-2.6zM566.5 71.5l-1.2 2.6-1.7 2.4 3-.2 2.9.2-1.7-2.4-1.3-2.6zM574 71.5l-1.3 2.6-1.6 2.4 2.9-.3 3 .3-1.8-2.4-1.2-2.6zM581.5 71.5l-1.3 2.6-1.7 2.4 3-.3 2.9.3-1.7-2.4-1.2-2.6zM589 71.5l-1.3 2.6-1.7 2.4 3-.2 2.9.2-1.7-2.4-1.3-2.6zM596.4 71.6l-1.3 2.6-1.6 2.3 2.9-.3 2.9.3-1.7-2.3-1.2-2.6zM603.8 71.5l-1.2 2.6-1.7 2.4 3-.2 2.9.2-1.7-2.4-1.3-2.6zM611.3 71.5l-1.3 2.6-1.6 2.4 2.9-.2 3 .2-1.8-2.4-1.2-2.6zM618.8 71.5l-1.3 2.6-1.7 2.4 3-.2 2.9.2-1.7-2.4-1.3-2.6zM626.2 71.5l-1.2 2.6-1.7 2.4 3-.2 2.9.2-1.7-2.4-1.3-2.6zM633.7 71.5l-1.3 2.6-1.7 2.4 3-.2 3 .2-1.8-2.4-1.2-2.6zM641.1 71.5l-1.2 2.6-1.7 2.4 3-.2 2.9.2-1.7-2.4-1.3-2.6zM648.6 71.5l-1.3 2.6-1.7 2.4 3-.2 3 .2-1.8-2.4-1.2-2.6zM78 77.8l-1.3 2.7-1.7 2.3 3-.2 3 .2-1.8-2.3-1.2-2.7zM85.5 77.8l-1.3 2.7-1.7 2.3 3-.2 2.9.2-1.7-2.3-1.3-2.7zM93 77.8l-1.3 2.7-1.7 2.3 3-.2 2.9.2-1.7-2.3-1.3-2.7zM100.4 77.8L99 80.5l-1.7 2.3 3-.2 3 .2-1.8-2.3-1.2-2.7zM145.1 80.8l-.1.3-.2.3h.7l-.2-.3-.2-.3zM316.7 77.8l-1.3 2.7-1.7 2.3 3-.2 3 .2-1.8-2.3-1.2-2.7zM324.1 77.8l-1.2 2.7-1.7 2.3 3-.2 2.9.2-1.7-2.3-1.3-2.7zM331.6 77.8l-1.3 2.7-1.7 2.3 3-.2 3 .2-1.8-2.3-1.2-2.7zM339 77.8l-1.2 2.7-1.7 2.3 3-.2 2.9.2-1.7-2.3-1.3-2.7zM346.5 77.8l-1.3 2.7-1.6 2.3 3-.2 2.8.2-1.6-2.3-1.3-2.7zM354 77.8l-1.3 2.7-1.7 2.3 3-.2 3 .2-1.8-2.3-1.2-2.7zM361.4 77.8l-1.2 2.7-1.7 2.3 3-.2 2.9.2-1.7-2.3-1.3-2.7zM368.9 77.8l-1.3 2.7-1.7 2.3 3-.2 3 .2-1.8-2.3-1.2-2.7zM376.3 77.8l-1.2 2.7-1.7 2.3 3-.2 2.9.2-1.7-2.3-1.3-2.7zM383.8 77.8l-1.3 2.7-1.6 2.3 2.9-.2 3 .2-1.7-2.3-1.3-2.7zM391.3 77.8l-1.3 2.7-1.7 2.3 3-.2 3 .2-1.8-2.3-1.2-2.7zM398.7 77.8l-1.2 2.7-1.7 2.3 3-.2 2.9.2-1.7-2.3-1.3-2.7zM406.2 77.8l-1.3 2.7-1.7 2.3 3-.2 3 .2-1.8-2.3-1.2-2.7zM413.6 78l-1.1 2.5-1.6 2.2 2.7-.2 2.8.2-1.6-2.2-1.2-2.4zM421.1 77.8l-1.3 2.7-1.7 2.3 3-.2 3 .2-1.8-2.3-1.2-2.7zM428.6 77.8l-1.3 2.7-1.7 2.3 3-.2 2.9.2-1.7-2.3-1.3-2.7zM436 77.8l-1.2 2.7-1.7 2.3 3-.2 2.9.2-1.7-2.3-1.3-2.7zM451 77.8l-1.3 2.7-1.7 2.3 3-.2 2.9.2-1.7-2.3-1.3-2.7zM458.4 77.8l-1.3 2.7-1.7 2.3 3-.2 3 .2-1.8-2.3-1.2-2.7zM465.9 77.8l-1.3 2.7-1.7 2.3 3-.2 2.9.2-1.7-2.3-1.3-2.7zM473.3 77.8l-1.3 2.7-1.6 2.3 3-.2 2.9.2-1.7-2.3-1.3-2.7zM480.8 79.5l-.6 1.3-.9 1.2 1.5-.2 1.4.2-.8-1.2-.6-1.3zM503.1 78.8l-.8 1.9-1.2 1.6 2-.2 2.1.2-1.2-1.6-.9-1.9zM510.6 77.8l-1.3 2.7-1.7 2.3 3-.2 3 .2-1.8-2.3-1.2-2.7zM518 80.4l-.2.6-.4.5H518.7l-.4-.5-.2-.6zM525.5 77.8l-1.2 2.7-1.7 2.3 3-.2 2.9.2-1.7-2.3-1.3-2.7zM533 77.8l-1.3 2.7-1.7 2.3 3-.2 3 .2-1.8-2.3-1.2-2.7zM540.4 77.8l-1.2 2.7-1.7 2.3 3-.2 2.9.2-1.7-2.3-1.3-2.7zM547.9 77.8l-1.3 2.7-1.6 2.3 2.9-.2 3 .2-1.8-2.3-1.2-2.7zM555.4 77.8l-1.3 2.7-1.7 2.3 3-.2 2.9.2-1.7-2.3-1.3-2.7zM562.8 77.8l-1.2 2.7-1.7 2.3 3-.2 2.9.2-1.7-2.3-1.3-2.7zM570.3 77.8l-1.3 2.7-1.7 2.3 3-.2 3 .2-1.8-2.3-1.2-2.7zM577.7 78l-1.2 2.5-1.6 2.3 2.8-.3 2.8.3-1.6-2.3-1.2-2.5zM585.2 77.8l-1.3 2.7-1.7 2.3 3-.2 3 .2-1.8-2.3-1.2-2.7zM592.6 77.8l-1.2 2.7-1.7 2.3 3-.2 2.9.2-1.7-2.3-1.3-2.7zM600.1 77.8l-1.3 2.7-1.6 2.3 2.9-.2 3 .2-1.7-2.3-1.3-2.7zM607.6 77.8l-1.3 2.7-1.7 2.3 3-.2 3 .2-1.8-2.3-1.2-2.7zM615 77.8l-1.2 2.7-1.7 2.3 3-.2 2.9.2-1.7-2.3-1.3-2.7zM622.5 77.8l-1.3 2.7-1.7 2.3 3-.2 3 .2-1.8-2.3-1.2-2.7zM630 77.8l-1.3 2.7-1.7 2.3 3-.2 2.9.2-1.7-2.3-1.3-2.7zM637.4 77.8l-1.3 2.7-1.6 2.3 2.9-.2 3 .2-1.8-2.3-1.2-2.7zM644.9 77.8l-1.3 2.7-1.7 2.3 3-.2 2.9.2-1.7-2.3-1.2-2.7zM652.3 78l-1.2 2.5-1.6 2.3 2.8-.3 2.9.3-1.7-2.3-1.2-2.5zM81.7 84.2l-1.2 2.6-1.7 2.4 3-.3 2.9.3-1.7-2.4-1.3-2.6zM89.2 84.2l-1.3 2.6-1.7 2.4 3-.3 3 .3-1.8-2.4-1.2-2.6zM96.6 84.2l-1.2 2.6-1.7 2.4 3-.3 2.9.3-1.7-2.4-1.3-2.6zM313 84.2l-1.3 2.6-1.7 2.4 3-.3 2.9.3-1.7-2.4-1.3-2.6zM320.4 84.2l-1.2 2.6-1.7 2.4 2.9-.3 3 .3-1.8-2.4-1.2-2.6zM327.9 84.2l-1.3 2.6-1.7 2.4 3-.3 3 .3-1.8-2.4-1.2-2.6zM335.3 84.2l-1.2 2.6-1.7 2.4 3-.3 2.9.3-1.7-2.4-1.3-2.6zM342.8 84.2l-1.3 2.6-1.7 2.4 3-.3 3 .3-1.8-2.4-1.2-2.6zM350.2 84.2l-1.2 2.6-1.7 2.4 3-.3 2.9.3-1.7-2.4-1.3-2.6zM357.7 84.2l-1.3 2.6-1.6 2.4 2.9-.3 3 .3-1.8-2.4-1.2-2.6zM365.1 84.2l-1.2 2.6-1.7 2.4 3-.3 2.9.3-1.7-2.4-1.3-2.6zM372.6 84.2l-1.2 2.6-1.7 2.4 3-.3 2.9.3-1.7-2.4-1.3-2.6zM380 84.2l-1.2 2.6-1.7 2.4 3-.3 3 .3-1.8-2.4-1.2-2.6zM387.5 84.2l-1.2 2.6-1.7 2.4 3-.3 2.9.3-1.7-2.4-1.3-2.6zM395 84.2l-1.3 2.6-1.7 2.4 3-.3 3 .3-1.8-2.4-1.2-2.6zM402.4 84.2l-1.2 2.6-1.7 2.4 3-.3 2.9.3-1.7-2.4-1.3-2.6zM410 84.2l-1.4 2.6-1.6 2.4 3-.3 2.9.3-1.7-2.4-1.3-2.6zM417.4 84.2l-1.3 2.6-1.7 2.4 3-.3 3 .3-1.8-2.4-1.2-2.6zM424.8 84.2l-1.2 2.6-1.7 2.4 3-.3 2.9.3-1.7-2.4-1.3-2.6zM432.3 84.2l-1.3 2.6-1.7 2.4 3-.3 3 .3-1.8-2.4-1.2-2.6zM439.7 84.2l-1.2 2.6-1.7 2.4 3-.3 2.9.3-1.7-2.4-1.3-2.6zM454.7 84.2l-1.3 2.6-1.7 2.4 3-.3 3 .3-1.8-2.4-1.2-2.6zM462.1 84.2l-1.2 2.6-1.7 2.4 3-.3 2.9.3-1.7-2.4-1.3-2.6zM469.6 84.2l-1.3 2.6-1.7 2.4 3-.3 3 .3-1.8-2.4-1.2-2.6zM477 84.2l-1.2 2.6-1.7 2.4 3-.3 2.9.3-1.7-2.4-1.3-2.6zM484.5 84.2l-1.3 2.6-1.6 2.4 2.9-.3 3 .3-1.8-2.4-1.2-2.6zM492 84.2l-1.3 2.6-1.7 2.3 3-.2 2.9.2-1.7-2.3-1.3-2.6zM499.4 87l-.1.4-.3.3h.8l-.2-.3-.2-.4zM529.3 84.2l-1.3 2.6-1.7 2.4 3-.3 2.9.3-1.7-2.4-1.3-2.6zM536.7 84.2l-1.3 2.6-1.6 2.4 2.9-.3 3 .3-1.7-2.4-1.3-2.6zM544.2 84.2l-1.3 2.6-1.7 2.4 3-.3 3 .3-1.8-2.4-1.2-2.6zM551.6 84.2l-1.2 2.6-1.7 2.4 3-.3 2.9.3-1.7-2.4-1.3-2.6zM559 84.2l-1.2 2.6-1.7 2.4 3-.3 3 .3-1.8-2.4-1.2-2.6zM566.5 84.2l-1.2 2.6-1.7 2.4 3-.3 2.9.3-1.7-2.4-1.3-2.6zM574 84.2l-1.3 2.6-1.7 2.4 3-.3 3 .3-1.8-2.4-1.2-2.6zM581.5 84.2l-1.3 2.6-1.7 2.4 3-.3 2.9.3-1.7-2.4-1.2-2.6zM589 84.2l-1.3 2.6-1.7 2.4 3-.3 2.9.3-1.7-2.4-1.3-2.6zM596.4 84.2l-1.3 2.6-1.7 2.4 3-.3 3 .3-1.8-2.4-1.2-2.6zM603.8 84.2l-1.2 2.6-1.7 2.4 3-.3 2.9.3-1.7-2.4-1.3-2.6zM611.3 84.2l-1.3 2.6-1.6 2.4 2.9-.3 3 .3-1.8-2.4-1.2-2.6zM618.8 84.2l-1.3 2.6-1.7 2.4 3-.3 2.9.3-1.7-2.4-1.3-2.6zM626.2 84.2l-1.2 2.6-1.7 2.4 3-.3 2.9.3-1.7-2.4-1.3-2.6zM633.7 84.2l-1.3 2.6-1.7 2.4 3-.3 3 .3-1.8-2.4-1.2-2.6zM641.1 84.2l-1.2 2.6-1.7 2.4 3-.3 2.9.3-1.7-2.4-1.3-2.6zM656 85.8l-.6 1.3-.9 1.3 1.5-.2 1.6.2-1-1.3-.6-1.3zM85.5 90.5L84.2 93l-1.7 2.4 3-.3 2.9.3-1.7-2.4-1.3-2.6zM93 90.5L91.6 93 90 95.5l3-.3 2.9.3-1.7-2.4-1.3-2.6zM100.4 90.5L99 93l-1.7 2.4 3-.3 3 .3-1.8-2.4-1.2-2.6zM122.8 91.6l-.9 1.8-1.1 1.5 2-.2 1.9.2-1.1-1.5-.8-1.8zM309.2 90.6L308 93l-1.6 2.3 2.8-.2 2.9.2-1.7-2.3-1.2-2.5zM316.7 90.5l-1.3 2.6-1.7 2.4 3-.3 3 .3-1.8-2.4-1.2-2.6zM324.1 90.5L323 93l-1.7 2.4 3-.3 2.9.3-1.7-2.4-1.3-2.6zM331.6 90.5l-1.3 2.6-1.7 2.4 3-.3 3 .3-1.8-2.4-1.2-2.6zM339 90.5l-1.2 2.6-1.7 2.4 3-.3 2.9.3-1.7-2.4-1.3-2.6zM346.5 90.5l-1.3 2.6-1.6 2.4 3-.3 2.8.3-1.6-2.4-1.3-2.6zM354 90.5l-1.3 2.6-1.7 2.4 3-.3 3 .3-1.8-2.4-1.2-2.6zM361.4 90.5l-1.2 2.6-1.7 2.4 3-.3 2.9.3-1.7-2.4-1.3-2.6zM368.9 90.5l-1.3 2.6-1.7 2.4 3-.3 3 .3L370 93l-1.2-2.6zM376.3 90.5l-1.2 2.6-1.7 2.4 3-.3 2.9.3-1.7-2.4-1.3-2.6zM383.8 90.5l-1.3 2.6-1.6 2.4 2.9-.3 3 .3L385 93l-1.3-2.6zM391.3 90.5L390 93l-1.7 2.4 3-.3 3 .3-1.8-2.4-1.2-2.6zM398.7 90.5l-1.2 2.6-1.7 2.4 3-.3 2.9.3L400 93l-1.3-2.6zM406.2 90.5l-1.3 2.6-1.7 2.4 3-.3 3 .3-1.8-2.4-1.2-2.6zM413.6 90.5l-1.2 2.6-1.7 2.4 3-.3 2.9.3-1.7-2.4-1.3-2.6zM421.1 90.5l-1.3 2.6-1.7 2.4 3-.3 3 .3-1.8-2.4-1.2-2.6zM428.6 90.5l-1.3 2.6-1.7 2.4 3-.3 2.9.3-1.7-2.4-1.3-2.6zM436 90.5l-1.2 2.6-1.7 2.4 3-.3 2.9.3-1.7-2.4-1.3-2.6zM443.5 90.5l-1.3 2.6-1.7 2.4 3-.3 3 .3-1.8-2.4-1.2-2.6zM451 90.6l-1.3 2.5-1.6 2.3 2.8-.2 2.9.2-1.7-2.3-1.2-2.5zM458.4 90.5L457 93l-1.7 2.4 3-.3 3 .3-1.8-2.4-1.2-2.6zM465.9 90.5l-1.3 2.6-1.7 2.4 3-.3 2.9.3L467 93l-1.3-2.6zM473.3 90.5L472 93l-1.6 2.4 3-.3 2.9.3-1.7-2.4-1.3-2.6zM480.8 90.5l-1.3 2.6-1.7 2.4 3-.3 3 .3L482 93l-1.2-2.6zM488.2 90.5L487 93l-1.7 2.4 3-.3 2.9.3-1.7-2.4-1.3-2.6zM495.7 90.5l-1.3 2.6-1.7 2.4 3-.3 3 .3-1.8-2.4-1.2-2.6zM533 91.3l-1 2-1.3 1.8 2.3-.2 2.2.2-1.3-1.8-1-2zM540.4 90.5l-1.2 2.6-1.7 2.4 3-.3 2.9.3-1.7-2.4-1.3-2.6zM547.9 90.5l-1.3 2.6-1.6 2.4 2.9-.3 3 .3L549 93l-1.2-2.6zM555.4 90.5L554 93l-1.7 2.4 3-.3 2.9.3-1.7-2.4-1.3-2.6zM562.8 90.5l-1.2 2.6-1.7 2.4 3-.3 2.9.3L564 93l-1.3-2.6zM570.3 90.5L569 93l-1.7 2.4 3-.3 3 .3-1.8-2.4-1.2-2.6zM592.6 90.5l-1.2 2.6-1.7 2.4 3-.3 2.9.3-1.7-2.4-1.3-2.6zM600.1 90.5l-1.3 2.6-1.6 2.4 2.9-.3 3 .3-1.7-2.4-1.3-2.6zM607.6 90.5l-1.3 2.6-1.6 2.4 2.9-.3 2.9.3-1.7-2.4-1.2-2.6zM615 90.5l-1.2 2.6-1.7 2.4 3-.3 2.9.3-1.7-2.4-1.3-2.6zM622.5 90.5l-1.3 2.6-1.7 2.4 3-.3 3 .3-1.8-2.4-1.2-2.6zM89.2 96.8l-1.3 2.6-1.7 2.4 3-.2 3 .2-1.8-2.4-1.2-2.6zM96.6 96.8l-1.2 2.6-1.7 2.4 3-.2 2.9.2-1.7-2.4-1.3-2.6zM119 96.8l-1.2 2.6-1.7 2.4 3-.2 2.9.2-1.7-2.4-1.3-2.6zM313 96.8l-1.3 2.6-1.7 2.4 3-.2 2.9.2-1.7-2.4-1.3-2.6zM320.4 96.8l-1.3 2.6-1.6 2.4 2.9-.2 3 .2-1.7-2.4-1.3-2.6zM327.9 96.8l-1.3 2.6-1.7 2.4 3-.2 3 .2-1.8-2.4-1.2-2.6zM335.3 97l-1.2 2.5-1.6 2.2 2.8-.2 2.8.2-1.6-2.2-1.2-2.5zM342.8 96.8l-1.3 2.6-1.7 2.4 3-.2 3 .2-1.8-2.4-1.2-2.6zM350.2 96.8l-1.2 2.6-1.7 2.4 3-.2 2.9.2-1.7-2.4-1.3-2.6zM357.7 96.8l-1.3 2.6-1.6 2.4 2.9-.3 3 .3-1.8-2.4-1.2-2.6zM365.1 96.8l-1.2 2.6-1.7 2.4 3-.2 2.9.2-1.7-2.4-1.3-2.6zM372.6 96.8l-1.2 2.6-1.7 2.4 3-.2 2.9.2-1.7-2.4-1.3-2.6zM380 96.8l-1.2 2.6-1.7 2.4 3-.2 3 .2-1.8-2.4-1.2-2.6zM387.5 96.8l-1.2 2.6-1.7 2.4 3-.2 2.9.2-1.7-2.4-1.3-2.6zM395 96.8l-1.3 2.6-1.7 2.4 3-.2 3 .2-1.8-2.4-1.2-2.6zM402.4 96.8l-1.2 2.6-1.7 2.4 3-.2 2.9.2-1.7-2.4-1.3-2.6zM410 96.8l-1.4 2.6-1.6 2.4 3-.2 2.9.2-1.7-2.4-1.3-2.6zM417.4 96.8l-1.3 2.6-1.7 2.4 3-.2 3 .2-1.8-2.4-1.2-2.6zM424.8 96.8l-1.2 2.6-1.7 2.4 3-.2 2.9.2-1.7-2.4-1.3-2.6zM432.3 96.8l-1.3 2.6-1.7 2.4 3-.2 3 .2-1.8-2.4-1.2-2.6zM439.7 96.8l-1.2 2.6-1.7 2.4 3-.2 2.9.2-1.7-2.4-1.3-2.6zM462.1 96.8l-1.2 2.6-1.7 2.4 3-.2 2.9.2-1.7-2.4-1.3-2.6zM469.6 96.8l-1.3 2.6-1.7 2.4 3-.2 3 .2-1.8-2.4-1.2-2.6zM477 96.8l-1.2 2.6-1.7 2.4 3-.2 2.9.2-1.7-2.4-1.3-2.6zM484.5 96.8l-1.3 2.6-1.6 2.4 2.9-.3 3 .3-1.8-2.4-1.2-2.6zM492 96.8l-1.3 2.6-1.7 2.4 3-.2 2.9.2-1.7-2.4-1.3-2.6zM544.2 96.8l-1.3 2.6-1.7 2.4 3-.2 3 .2-1.8-2.4-1.2-2.6zM551.6 96.8l-1.2 2.6-1.7 2.4 3-.2 2.9.2-1.7-2.4-1.3-2.6zM559 96.8l-1.2 2.6-1.7 2.4 3-.2 3 .2-1.8-2.4-1.2-2.6zM566.5 96.8l-1.2 2.6-1.7 2.4 3-.2 2.9.2-1.7-2.4-1.3-2.6zM596.4 96.8l-1.3 2.6-1.7 2.4 3-.2 3 .2-1.8-2.4-1.2-2.6zM603.8 96.8l-1.2 2.6-1.7 2.4 3-.2 2.9.2-1.7-2.4-1.3-2.6zM611.3 96.8l-1.3 2.6-1.6 2.4 2.9-.2 3 .2-1.8-2.4-1.2-2.6zM618.8 96.8l-1.3 2.6-1.7 2.4 3-.2 2.9.2-1.7-2.4-1.3-2.6zM100.4 103.1l-1.3 2.7-1.7 2.3 3-.2 3 .2-1.8-2.3-1.2-2.7zM107.8 103.1l-1.2 2.7-1.7 2.3 3-.2 2.9.2-1.7-2.3-1.3-2.7zM115.3 103.1l-1.3 2.7-1.7 2.3 3-.2 3 .2-1.8-2.3-1.2-2.7zM122.8 105.2l-.5 1-.7 1 1.2-.2 1 .1-.6-.9-.5-1zM309.2 103.2l-1.2 2.6-1.7 2.3 3-.2 2.8.2-1.7-2.3-1.2-2.6zM316.7 103.1l-1.3 2.7-1.7 2.3 3-.2 3 .2-1.8-2.3-1.2-2.7zM324.1 103.1l-1.2 2.7-1.7 2.3 3-.2 2.9.2-1.7-2.3-1.3-2.7zM331.6 103.1l-1.3 2.7-1.7 2.3 3-.2 3 .2-1.8-2.3-1.2-2.7zM339 103.1l-1.2 2.7-1.7 2.3 3-.2 2.9.2-1.7-2.3-1.3-2.7zM346.5 103.1l-1.3 2.7-1.6 2.3 3-.2 2.8.2-1.6-2.3-1.3-2.7zM354 103.1l-1.3 2.7-1.7 2.3 3-.2 3 .2-1.8-2.3-1.2-2.7zM361.4 103.2l-1.2 2.6-1.7 2.3 3-.2 2.8.2-1.6-2.3-1.3-2.6zM368.9 103.1l-1.3 2.7-1.7 2.3 3-.2 3 .2-1.8-2.3-1.2-2.7zM376.3 103.1l-1.2 2.7-1.7 2.3 3-.2 2.9.2-1.7-2.3-1.3-2.7zM383.8 103.1l-1.3 2.7-1.6 2.3 2.9-.2 3 .2-1.7-2.3-1.3-2.7zM391.3 103.1l-1.3 2.7-1.7 2.3 3-.2 3 .2-1.8-2.3-1.2-2.7zM398.7 103.1l-1.2 2.7-1.7 2.3 3-.2 2.9.2-1.7-2.3-1.3-2.7zM406.2 103.1l-1.3 2.7-1.7 2.3 3-.2 3 .2-1.8-2.3-1.2-2.7zM413.6 103.1l-1.2 2.7-1.7 2.3 3-.2 2.9.2-1.7-2.3-1.3-2.7zM421.1 103.1l-1.3 2.7-1.7 2.3 3-.2 3 .2-1.8-2.3-1.2-2.7zM428.6 103.1l-1.3 2.7-1.7 2.3 3-.2 2.9.2-1.7-2.3-1.3-2.7zM436 103.1l-1.2 2.7-1.7 2.3 3-.2 2.9.2-1.7-2.3-1.3-2.7zM443.5 103.1l-1.3 2.7-1.7 2.3 3-.2 3 .2-1.8-2.3-1.2-2.7zM465.9 103.1l-1.3 2.7-1.7 2.3 3-.2 2.9.2-1.7-2.3-1.3-2.7zM473.3 103.1l-1.3 2.7-1.6 2.3 3-.2 2.9.2-1.7-2.3-1.3-2.7zM480.8 103.1l-1.3 2.7-1.7 2.3 3-.2 3 .2-1.8-2.3-1.2-2.7zM540.4 103.1l-1.2 2.7-1.7 2.3 3-.2 2.9.2-1.7-2.3-1.3-2.7zM547.9 103.1l-1.3 2.7-1.6 2.3 2.9-.2 3 .2-1.8-2.3-1.2-2.7zM555.4 103.1l-1.3 2.7-1.7 2.3 3-.2 2.9.2-1.7-2.3-1.3-2.7zM592.6 106.3v.2h.2-.1v-.2zM607.6 103.1l-1.3 2.7-1.7 2.3 3-.2 3 .2-1.8-2.3-1.2-2.7zM615 103.1l-1.2 2.7-1.7 2.3 3-.2 2.9.2-1.7-2.3-1.3-2.7zM622.5 103.1l-1.3 2.7-1.7 2.3 3-.2 3 .2-1.8-2.3-1.2-2.7zM659.8 106.4l-.1.1h.1v-.1zM119 109.5l-1.2 2.6-1.7 2.4 3-.3 2.9.3-1.7-2.4-1.3-2.6zM126.5 109.5l-1.3 2.6-1.7 2.4 3-.3 3 .3-1.8-2.4-1.2-2.6zM134 109.5l-1.3 2.6-1.7 2.4 3-.3 2.9.3-1.7-2.4-1.3-2.6zM313 109.5l-1.3 2.6-1.7 2.4 3-.3 2.9.3-1.7-2.4-1.3-2.6zM320.4 109.5l-1.3 2.6-1.6 2.4 2.9-.3 3 .3-1.7-2.4-1.3-2.6zM327.9 109.5l-1.3 2.6-1.7 2.4 3-.3 3 .3-1.8-2.4-1.2-2.6zM335.3 109.5l-1.2 2.6-1.7 2.4 3-.3 2.9.3-1.7-2.4-1.3-2.6zM342.8 109.5l-1.3 2.6-1.7 2.4 3-.3 3 .3-1.8-2.4-1.2-2.6zM350.2 109.5L349 112l-1.7 2.4 3-.3 2.9.3-1.7-2.4-1.3-2.6zM357.7 109.5l-1.3 2.6-1.6 2.4 2.9-.3 3 .3-1.8-2.4-1.2-2.6zM365.1 109.5L364 112l-1.7 2.4 3-.3 2.9.3-1.7-2.4-1.3-2.6zM372.6 109.5l-1.2 2.6-1.7 2.4 3-.3 2.9.3-1.7-2.4-1.3-2.6zM380 109.5l-1.2 2.6-1.7 2.4 3-.3 3 .3-1.8-2.4-1.2-2.6zM387.5 109.5l-1.2 2.6-1.7 2.4 3-.3 2.9.3-1.7-2.4-1.3-2.6zM395 109.5l-1.3 2.6-1.7 2.4 3-.3 3 .3-1.8-2.4-1.2-2.6zM402.4 109.5l-1.2 2.6-1.7 2.4 3-.3 2.9.3-1.7-2.4-1.3-2.6zM410 109.5l-1.4 2.6-1.6 2.4 3-.3 2.9.3-1.7-2.4-1.3-2.6zM417.4 109.5L416 112l-1.7 2.4 3-.3 3 .3-1.8-2.4-1.2-2.6zM424.8 109.5l-1.2 2.6-1.7 2.4 3-.3 2.9.3-1.7-2.4-1.3-2.6zM432.3 109.5L431 112l-1.7 2.4 3-.3 3 .3-1.8-2.4-1.2-2.6zM439.7 109.5l-1.2 2.6-1.7 2.4 3-.3 2.9.3-1.7-2.4-1.3-2.6zM447.2 109.5l-1.3 2.6-1.6 2.4 2.9-.3 3 .3-1.8-2.4-1.2-2.6zM454.7 109.8l-1.2 2.4-1.5 2.1 2.7-.2 2.7.2-1.6-2.1-1.1-2.5zM462.1 109.5L461 112l-1.7 2.4 3-.3 2.9.3-1.7-2.4-1.3-2.6zM469.6 109.5l-1.3 2.6-1.7 2.4 3-.3 3 .3-1.8-2.4-1.2-2.6zM477 111.5l-.4 1-.7 1 1.1-.2 1.1.1-.6-.9-.5-1zM544.2 109.5l-1.3 2.6-1.7 2.4 3-.3 3 .3-1.8-2.4-1.2-2.6zM551.6 109.5l-1.2 2.6-1.7 2.4 3-.3 2.9.3-1.7-2.4-1.3-2.6zM603.8 109.5l-1.2 2.6-1.7 2.4 3-.3 2.9.3-1.7-2.4-1.3-2.6zM611.3 109.5L610 112l-1.6 2.4 2.9-.3 3 .3-1.8-2.4-1.2-2.6zM618.8 109.5l-1.3 2.6-1.7 2.4 3-.3 2.9.3-1.7-2.4-1.3-2.6zM626.2 109.5L625 112l-1.7 2.4 3-.3 2.9.3-1.7-2.4-1.3-2.6zM663.5 109.8l-1.1 2.4-1.6 2 2.7-.1 2.7.2-1.6-2.1-1.1-2.4zM130.2 115.8l-1.2 2.6-1.7 2.4 3-.3 2.8.3-1.6-2.4-1.3-2.6zM309.2 115.8l-1.2 2.6-1.7 2.4 3-.3 2.9.3-1.7-2.4-1.3-2.6zM316.7 115.8l-1.3 2.6-1.7 2.4 3-.3 3 .3-1.8-2.4-1.2-2.6zM324.1 115.8l-1.2 2.6-1.7 2.4 3-.3 2.9.3-1.7-2.4-1.3-2.6zM331.6 115.8l-1.3 2.6-1.7 2.4 3-.3 3 .3-1.8-2.4-1.2-2.6zM339 115.8l-1.2 2.6-1.7 2.4 3-.3 2.9.3-1.7-2.4-1.3-2.6zM346.5 115.8l-1.3 2.6-1.6 2.4 3-.3 2.8.3-1.6-2.4-1.3-2.6zM354 115.8l-1.3 2.6-1.7 2.4 3-.3 3 .3-1.8-2.4-1.2-2.6zM361.4 115.8l-1.2 2.6-1.7 2.4 3-.3 2.9.3-1.7-2.4-1.3-2.6zM368.9 115.8l-1.3 2.6-1.7 2.4 3-.3 3 .3-1.8-2.4-1.2-2.6zM376.3 115.8l-1.2 2.6-1.7 2.4 3-.3 2.9.3-1.7-2.4-1.3-2.6zM383.8 115.8l-1.3 2.6-1.6 2.4 2.9-.3 3 .3-1.7-2.4-1.3-2.6zM391.3 115.8l-1.3 2.6-1.7 2.4 3-.3 3 .3-1.8-2.4-1.2-2.6zM398.7 115.8l-1.2 2.6-1.7 2.4 3-.3 2.9.3-1.7-2.4-1.3-2.6zM406.2 115.8l-1.3 2.6-1.7 2.4 3-.3 3 .3-1.8-2.4-1.2-2.6zM413.6 115.8l-1.2 2.6-1.7 2.4 3-.3 2.9.3-1.7-2.4-1.3-2.6zM421.1 115.8l-1.3 2.6-1.7 2.4 3-.3 3 .3-1.8-2.4-1.2-2.6zM428.6 115.8l-1.3 2.6-1.7 2.4 3-.3 2.9.3-1.7-2.4-1.3-2.6zM436 115.8l-1.2 2.6-1.7 2.4 3-.3 2.9.3-1.7-2.4-1.3-2.6zM443.5 115.8l-1.3 2.6-1.7 2.4 3-.3 3 .3-1.8-2.4-1.2-2.6zM451 115.8l-1.3 2.6-1.7 2.4 3-.3 2.9.3-1.7-2.4-1.3-2.6zM458.4 115.8l-1.3 2.6-1.7 2.4 3-.3 3 .3-1.8-2.4-1.2-2.6zM547.9 115.8l-1.3 2.6-1.6 2.4 2.9-.3 3 .3-1.8-2.4-1.2-2.6zM555.4 115.8l-1.3 2.6-1.7 2.4 3-.3 2.9.3-1.7-2.4-1.3-2.6zM607.6 116l-1.2 2.4-1.7 2.3 2.9-.2 2.8.2-1.6-2.3-1.2-2.5zM615 117l-.7 1.7-1.1 1.4 1.8-.1 1.8.1-1-1.4-.8-1.6zM622.5 115.8l-1.3 2.6-1.7 2.4 3-.3 3 .3-1.8-2.4-1.2-2.6zM630 115.8l-1.3 2.6-1.7 2.4 3-.3 2.9.3-1.7-2.4-1.3-2.6zM156.3 122.1l-1.2 2.6-1.7 2.4 3-.3 2.9.3-1.7-2.4-1.3-2.6zM163.8 125l-.2.3-.3.4h.9l-.3-.4-.1-.3zM171.2 122.1l-1.2 2.6-1.7 2.4 3-.3 2.9.3-1.7-2.4-1.3-2.6zM178.7 122.5l-1.1 2.3-1.5 2.1 2.6-.2 2.6.2-1.5-2-1.1-2.4zM186.2 122.1l-1.3 2.6-1.7 2.4 3-.3 2.9.3-1.7-2.4-1.3-2.6zM313 125l-.2.4-.2.3.3-.1h.4l-.2-.2-.2-.4zM320.4 122.1l-1.3 2.6-1.6 2.4 2.9-.3 3 .3-1.7-2.4-1.3-2.6zM327.9 122.1l-1.3 2.6-1.7 2.4 3-.3 3 .3-1.8-2.4-1.2-2.6zM335.3 122.1l-1.2 2.6-1.7 2.4 3-.3 2.9.3-1.7-2.4-1.3-2.6zM342.8 122.2l-1.3 2.5-1.6 2.4 2.9-.3 2.9.3-1.7-2.4-1.2-2.5zM350.2 122.1l-1.2 2.6-1.7 2.4 3-.3 2.9.3-1.7-2.4-1.3-2.6zM357.7 122.1l-1.3 2.6-1.6 2.4 2.9-.3 3 .3-1.8-2.4-1.2-2.6zM365.1 122.1l-1.2 2.6-1.7 2.4 3-.3 2.9.3-1.7-2.4-1.3-2.6zM372.6 122.1l-1.2 2.6-1.7 2.4 3-.3 2.9.3-1.7-2.4-1.3-2.6zM380 122.1l-1.2 2.6-1.7 2.4 3-.3 3 .3-1.8-2.4-1.2-2.6zM387.5 122.1l-1.2 2.6-1.7 2.4 3-.3 2.9.3-1.7-2.4-1.3-2.6zM395 122.1l-1.3 2.6-1.7 2.4 3-.3 3 .3-1.8-2.4-1.2-2.6zM402.4 122.1l-1.2 2.6-1.7 2.4 3-.3 2.9.3-1.7-2.4-1.3-2.6zM410 122.1l-1.4 2.6-1.6 2.4 3-.3 2.9.3-1.7-2.4-1.3-2.6zM417.4 122.1l-1.3 2.6-1.7 2.4 3-.3 3 .3-1.8-2.4-1.2-2.6zM424.8 122.1l-1.2 2.6-1.7 2.4 3-.3 2.9.3-1.7-2.4-1.3-2.6zM432.3 122.1l-1.3 2.6-1.7 2.4 3-.3 3 .3-1.8-2.4-1.2-2.6zM439.7 122.2l-1.2 2.5-1.7 2.4 3-.3 2.8.3-1.6-2.4-1.3-2.5zM447.2 122.1l-1.3 2.6-1.6 2.4 2.9-.3 3 .3-1.8-2.4-1.2-2.6zM454.7 122.1l-1.3 2.6-1.7 2.4 3-.3 3 .3-1.8-2.4-1.2-2.6zM462.1 122.1l-1.2 2.6-1.7 2.4 3-.3 2.9.3-1.7-2.4-1.3-2.6zM469.6 122.1l-1.3 2.6-1.7 2.4 3-.3 3 .3-1.8-2.4-1.2-2.6zM477 122.1l-1.2 2.6-1.7 2.4 3-.3 2.9.3-1.7-2.4-1.3-2.6zM551.6 122.1l-1.2 2.6-1.7 2.4 3-.3 2.9.3-1.7-2.4-1.3-2.6zM626.2 123.5l-.7 1.5-1 1.4 1.7-.2 1.8.2-1-1.4-.8-1.5zM671 125.1l-.1.3-.2.2h.6l-.2-.2-.1-.3zM152.6 128.4l-1.3 2.7-1.7 2.3 3-.2 3 .2-1.8-2.3-1.2-2.7zM160 128.4l-1.2 2.7-1.7 2.3 3-.2 2.9.2-1.7-2.3-1.3-2.7zM167.5 128.4l-1.3 2.7-1.6 2.3 2.9-.2 3 .2-1.8-2.3-1.2-2.7zM175 128.4l-1.3 2.7-1.7 2.3 3-.2 3 .2-1.8-2.3-1.2-2.7zM182.4 128.4l-1.2 2.7-1.7 2.3 3-.2 2.9.2-1.7-2.3-1.3-2.7zM189.9 128.4l-1.3 2.7-1.7 2.3 3-.2 3 .2-1.8-2.3-1.2-2.7zM316.7 129.9l-.7 1.5-1 1.3 1.7-.2 1.7.2-1-1.3-.7-1.5zM324.1 128.4l-1.2 2.7-1.7 2.3 3-.2 2.9.2-1.7-2.3-1.3-2.7zM331.6 128.4l-1.3 2.7-1.7 2.3 3-.2 3 .2-1.8-2.3-1.2-2.7zM339 128.4l-1.2 2.7-1.7 2.3 3-.2 2.9.2-1.7-2.3-1.3-2.7zM346.5 128.4l-1.3 2.7-1.6 2.3 3-.2 2.8.2-1.6-2.3-1.3-2.7zM354 128.4l-1.3 2.7-1.7 2.3 3-.2 3 .2-1.8-2.3-1.2-2.7zM361.4 128.4l-1.2 2.7-1.7 2.3 3-.2 2.9.2-1.7-2.3-1.3-2.7zM368.9 128.4l-1.3 2.7-1.7 2.3 3-.2 3 .2-1.8-2.3-1.2-2.7zM376.3 128.4l-1.2 2.7-1.7 2.3 3-.2 2.9.2-1.7-2.3-1.3-2.7zM383.8 128.4l-1.3 2.7-1.6 2.3 2.9-.2 3 .2-1.7-2.3-1.3-2.7zM391.3 128.4l-1.3 2.7-1.7 2.3 3-.2 3 .2-1.8-2.3-1.2-2.7zM398.7 128.5l-1.2 2.6-1.7 2.3 3-.2 2.8.2-1.6-2.3-1.3-2.6zM406.2 128.4l-1.3 2.7-1.7 2.3 3-.2 3 .2-1.8-2.3-1.2-2.7zM413.6 128.4l-1.2 2.7-1.7 2.3 3-.2 2.9.2-1.7-2.3-1.3-2.7zM421.1 128.4l-1.3 2.7-1.7 2.3 3-.2 3 .2-1.8-2.3-1.2-2.7zM428.6 128.4l-1.3 2.7-1.7 2.3 3-.2 2.9.2-1.7-2.3-1.3-2.7zM436 128.4l-1.2 2.7-1.7 2.3 3-.2 2.9.2-1.7-2.3-1.3-2.7zM443.5 128.4l-1.3 2.7-1.7 2.3 3-.2 3 .2-1.8-2.3-1.2-2.7zM451 128.4l-1.3 2.7-1.7 2.3 3-.2 2.9.2-1.7-2.3-1.3-2.7zM458.4 128.4l-1.3 2.7-1.7 2.3 3-.2 3 .2-1.8-2.3-1.2-2.7zM465.9 128.4l-1.3 2.7-1.7 2.3 3-.2 2.9.2-1.7-2.3-1.3-2.7zM473.3 128.8l-1.1 2.3-1.6 2.2 2.7-.3 2.7.3-1.6-2.2-1-2.3zM607.6 129.2l-1 2-1.3 1.8 2.3-.2 2.2.2-1.3-1.8-1-2zM674.7 128.4l-1.3 2.7-1.7 2.3 3-.2 3 .2-1.8-2.3-1.2-2.7zM148.8 136.9l-.4 1-.6.8 1-.1h1.1l-.6-.8-.5-1zM156.3 134.8l-1.2 2.6-1.7 2.3 3-.2 2.9.3-1.7-2.4-1.3-2.6zM163.8 134.8l-1.3 2.6-1.7 2.3 3-.2 3 .3-1.8-2.4-1.2-2.6zM171.2 134.8l-1.2 2.6-1.7 2.3 3-.2 2.8.2-1.6-2.3-1.3-2.6zM178.7 134.8l-1.3 2.6-1.7 2.3 3-.2 3 .3-1.8-2.4-1.2-2.6zM186.2 134.8l-1.3 2.6-1.7 2.3 3-.2 2.9.3-1.7-2.4-1.3-2.6zM193.6 134.8l-1.3 2.6-1.6 2.3 3-.2 2.9.3-1.7-2.4-1.3-2.6zM201 135l-1 2.4-1.6 2.2 2.7-.2 2.7.2-1.6-2.2-1.1-2.4zM327.9 134.8l-1.3 2.6-1.7 2.3 3-.2 3 .3-1.8-2.4-1.2-2.6zM335.3 134.8l-1.2 2.6-1.7 2.3 3-.2 2.9.3-1.7-2.4-1.3-2.6zM342.8 134.8l-1.2 2.6-1.7 2.3 2.9-.2 2.9.2-1.7-2.3-1.2-2.6zM350.2 135.9l-.8 1.7-1.1 1.6 2-.2 2 .2-1.2-1.6-.9-1.7zM365.1 134.8l-1.2 2.6-1.7 2.3 3-.2 2.9.3-1.7-2.4-1.3-2.6zM372.6 134.8l-1.2 2.6-1.7 2.3 3-.2 2.9.3-1.7-2.4-1.3-2.6zM380 134.8l-1.2 2.6-1.7 2.3 3-.2 3 .3-1.8-2.4-1.2-2.6zM387.5 134.9l-1.2 2.5-1.6 2.3 2.8-.3 2.9.3-1.7-2.3-1.2-2.5zM395 134.8l-1.3 2.6-1.7 2.3 3-.2 3 .3-1.8-2.4-1.2-2.6zM402.4 134.8l-1.2 2.6-1.7 2.3 3-.2 2.9.3-1.7-2.4-1.3-2.6zM410 134.8l-1.4 2.6-1.6 2.3 3-.2 2.9.3-1.7-2.4-1.3-2.6zM417.4 134.8l-1.3 2.6-1.7 2.3 3-.2 3 .3-1.8-2.4-1.2-2.6zM424.8 134.8l-1.2 2.6-1.7 2.3 3-.2 2.9.3-1.7-2.4-1.3-2.6zM432.3 134.8l-1.3 2.6-1.7 2.3 3-.2 3 .3-1.8-2.4-1.2-2.6zM439.7 134.8l-1.2 2.6-1.7 2.3 3-.2 2.9.3-1.7-2.4-1.3-2.6zM447.2 134.8l-1.3 2.6-1.6 2.3 2.9-.2 3 .3-1.8-2.4-1.2-2.6zM454.7 134.8l-1.3 2.6-1.7 2.3 3-.2 3 .3-1.8-2.4-1.2-2.6zM462.1 134.8l-1.2 2.6-1.7 2.3 3-.2 2.9.3-1.7-2.4-1.3-2.6zM469.6 134.8l-1.3 2.6-1.7 2.3 3-.2 3 .2-1.8-2.3-1.2-2.6zM611.3 135.9l-.8 1.7-1.2 1.6 2-.2 2 .2-1.2-1.6-.8-1.7zM656 137.5l-.1.5-.4.4h1l-.3-.4-.2-.5zM152.6 141l-1.3 2.7-1.7 2.4 3-.3 3 .3-1.8-2.4-1.2-2.6zM160 141l-1.2 2.7-1.7 2.4 3-.3 2.9.3-1.7-2.4-1.3-2.6zM167.5 141l-1.3 2.7-1.6 2.4 2.9-.3 3 .3-1.8-2.4-1.2-2.6zM175 141.1l-1.3 2.6-1.7 2.4 3-.3 2.9.3-1.7-2.4-1.2-2.6zM182.4 141.2l-1.2 2.5-1.6 2.3 2.8-.2 2.9.2-1.7-2.3-1.2-2.5zM189.9 141l-1.3 2.7-1.7 2.4 3-.3 3 .3-1.8-2.4-1.2-2.6zM197.3 141l-1.2 2.7-1.7 2.4 3-.3 2.9.3-1.7-2.4-1.3-2.6zM204.8 141l-1.3 2.7-1.7 2.4 3-.3 3 .3-1.8-2.4-1.2-2.6zM212.3 141l-1.3 2.7-1.7 2.4 3-.3 2.9.3-1.7-2.4-1.3-2.6zM376.3 141l-1.2 2.7-1.7 2.4 3-.3 2.9.3-1.7-2.4-1.3-2.6zM383.8 141l-1.3 2.7-1.6 2.4 2.9-.3 3 .3-1.7-2.4-1.3-2.6zM391.3 141l-1.3 2.7-1.7 2.4 3-.3 3 .3-1.8-2.4-1.2-2.6zM398.7 141l-1.2 2.7-1.7 2.4 3-.3 2.9.3-1.7-2.4-1.3-2.6zM406.2 141l-1.3 2.7-1.7 2.4 3-.3 3 .3-1.8-2.4-1.2-2.6zM413.6 141l-1.2 2.7-1.7 2.4 3-.3 2.9.3-1.7-2.4-1.3-2.6zM421.1 141l-1.3 2.7-1.7 2.4 3-.3 3 .3-1.8-2.4-1.2-2.6zM428.6 141l-1.3 2.7-1.7 2.4 3-.3 2.9.3-1.7-2.4-1.3-2.6zM436 141l-1.2 2.7-1.7 2.4 3-.3 2.9.3-1.7-2.4-1.3-2.6zM443.5 141l-1.3 2.7-1.7 2.4 3-.3 3 .3-1.8-2.4-1.2-2.6zM451 141.1l-1.3 2.6-1.7 2.4 3-.3 2.8.3-1.6-2.4-1.3-2.6zM458.4 141l-1.3 2.7-1.7 2.4 3-.3 3 .3-1.8-2.4-1.2-2.6zM465.9 141l-1.3 2.7-1.7 2.4 3-.3 2.9.3-1.7-2.4-1.3-2.6zM607.6 143.6l-.3.7-.5.5h1.5l-.4-.6-.3-.6zM615 141l-1.2 2.7-1.7 2.4 3-.3 2.9.3-1.7-2.4-1.3-2.6zM652.3 141l-1.2 2.7-1.7 2.4 3-.3 2.9.3-1.7-2.4-1.3-2.6zM148.8 147.4l-1.2 2.6-1.7 2.4 3-.3 2.9.3-1.7-2.4-1.3-2.6zM156.3 147.4l-1.2 2.6-1.7 2.4 3-.3 2.9.3-1.7-2.4-1.3-2.6zM163.8 147.4l-1.3 2.6-1.7 2.4 3-.3 3 .3-1.8-2.4-1.2-2.6zM171.2 147.5l-1.2 2.6-1.6 2.3 2.8-.3 2.9.3-1.7-2.3-1.2-2.6zM178.7 147.4l-1.3 2.6-1.7 2.4 3-.3 3 .3-1.8-2.4-1.2-2.6zM186.2 147.4l-1.3 2.6-1.7 2.4 3-.3 2.9.3-1.7-2.4-1.3-2.6zM193.6 147.4l-1.3 2.6-1.6 2.4 3-.3 2.9.3-1.7-2.4-1.3-2.6zM201 147.4l-1.2 2.6-1.7 2.4 3-.3 3 .3-1.8-2.4-1.2-2.6zM208.5 147.4l-1.2 2.6-1.7 2.4 3-.3 2.9.3-1.7-2.4-1.3-2.6zM216 147.4l-1.3 2.6-1.7 2.4 3-.3 3 .3-1.8-2.4-1.2-2.6zM380 147.4l-1.2 2.6-1.7 2.4 3-.3 3 .3-1.8-2.4-1.2-2.6zM387.5 147.4l-1.2 2.6-1.7 2.4 3-.3 2.9.3-1.7-2.4-1.3-2.6zM395 147.4l-1.3 2.6-1.7 2.4 3-.3 3 .3-1.8-2.4-1.2-2.6zM402.4 147.4l-1.2 2.6-1.7 2.4 3-.3 2.9.3-1.7-2.4-1.3-2.6zM410 147.4l-1.4 2.6-1.6 2.4 3-.3 2.9.3-1.7-2.4-1.3-2.6zM417.4 147.4L416 150l-1.7 2.4 3-.3 3 .3-1.8-2.4-1.2-2.6zM424.8 147.4l-1.2 2.6-1.7 2.4 3-.3 2.9.3-1.7-2.4-1.3-2.6zM432.3 147.4L431 150l-1.7 2.4 3-.3 3 .3-1.8-2.4-1.2-2.6zM439.7 147.4l-1.2 2.6-1.7 2.4 3-.3 2.9.3-1.7-2.4-1.3-2.6zM447.2 147.4l-1.3 2.6-1.6 2.4 2.9-.3 3 .3-1.8-2.4-1.2-2.6zM454.7 147.4l-1.3 2.6-1.7 2.4 3-.3 3 .3-1.8-2.4-1.2-2.6zM462.1 147.4L461 150l-1.7 2.4 3-.3 2.9.3-1.7-2.4-1.3-2.6zM611.3 147.4L610 150l-1.6 2.4 2.9-.3 3 .3-1.8-2.4-1.2-2.6zM641.1 147.4L640 150l-1.7 2.4 3-.3 2.9.3-1.7-2.4-1.3-2.6zM648.6 147.4l-1.3 2.6-1.7 2.4 3-.3 3 .3-1.8-2.4-1.2-2.6zM656 147.4l-1.2 2.6-1.7 2.4 3-.3 2.9.3-1.7-2.4-1.3-2.6zM145.1 153.7l-1.2 2.7-1.7 2.3 3-.2 2.9.2-1.7-2.3-1.3-2.7zM152.6 153.7l-1.3 2.7-1.7 2.3 3-.2 3 .2-1.8-2.3-1.2-2.7zM160 153.7l-1.2 2.7-1.7 2.3 3-.2 2.9.2-1.7-2.3-1.3-2.7zM167.5 153.7l-1.3 2.7-1.6 2.3 2.9-.2 3 .2-1.8-2.3-1.2-2.7zM175 153.7l-1.3 2.7-1.7 2.3 3-.2 3 .2-1.8-2.3-1.2-2.7zM182.4 153.7l-1.2 2.7-1.7 2.3 3-.2 2.9.2-1.7-2.3-1.3-2.7zM189.9 153.7l-1.3 2.7-1.7 2.3 3-.2 3 .2-1.8-2.3-1.2-2.7zM197.3 153.7l-1.2 2.7-1.7 2.3 3-.2 2.9.2-1.7-2.3-1.3-2.7zM204.8 153.7l-1.3 2.7-1.7 2.3 3-.2 3 .2-1.8-2.3-1.2-2.7zM212.3 153.7l-1.3 2.7-1.7 2.3 3-.2 2.9.2-1.7-2.3-1.3-2.7zM219.7 153.7l-1.2 2.7-1.7 2.3 3-.2 2.9.2-1.7-2.3-1.3-2.7zM227.2 155l-.8 1.7-1 1.4 1.8-.2 1.7.2-1-1.4-.7-1.6zM376.3 153.7l-1.2 2.7-1.7 2.3 3-.2 2.9.2-1.7-2.3-1.3-2.7zM383.8 153.7l-1.3 2.7-1.6 2.3 2.9-.2 3 .2-1.7-2.3-1.3-2.7zM391.3 153.7l-1.3 2.7-1.7 2.3 3-.2 3 .2-1.8-2.3-1.2-2.7zM398.7 153.7l-1.2 2.7-1.7 2.3 3-.2 2.9.2-1.7-2.3-1.3-2.7zM406.2 153.7l-1.3 2.7-1.7 2.3 3-.2 3 .2-1.8-2.3-1.2-2.7zM413.6 153.7l-1.2 2.7-1.7 2.3 3-.2 2.9.2-1.7-2.3-1.3-2.7zM421.1 153.7l-1.3 2.7-1.7 2.3 3-.2 3 .2-1.8-2.3-1.2-2.7zM428.6 153.8l-1.3 2.6-1.7 2.3 3-.2 2.9.2-1.7-2.3-1.3-2.7zM443.5 153.7l-1.3 2.7-1.7 2.3 3-.2 3 .2-1.8-2.3-1.2-2.7zM451 153.7l-1.3 2.7-1.7 2.3 3-.2 2.9.2-1.7-2.3-1.3-2.7zM458.4 154l-1.2 2.4-1.6 2.2 2.8-.2 2.7.2-1.6-2.2-1.1-2.4zM615 153.7l-1.2 2.7-1.7 2.3 3-.2 2.9.2-1.7-2.3-1.3-2.7zM637.4 153.7l-1.3 2.7-1.6 2.3 2.9-.2 3 .2-1.8-2.3-1.2-2.7zM644.9 153.7l-1.3 2.7-1.7 2.3 3-.2 2.9.2-1.7-2.3-1.2-2.7zM652.3 153.7l-1.2 2.7-1.7 2.3 3-.2 2.9.2-1.7-2.3-1.3-2.7zM682.1 157zM697 155.9l-.4 1-.6.8 1-.1h1.1l-.6-.8-.4-1zM141.4 162l-.5 1.1-.7 1 1.2-.2 1.2.1-.7-.9-.5-1zM148.8 160l-1.2 2.7-1.7 2.3 3-.2 2.9.2-1.7-2.3-1.3-2.6zM156.3 160l-1.2 2.7-1.7 2.4 3-.3 2.9.3-1.7-2.4-1.3-2.6zM163.8 160l-1.3 2.7-1.7 2.4 3-.3 3 .3-1.8-2.4-1.2-2.6zM171.2 160l-1.2 2.7-1.7 2.4 3-.3 2.9.3-1.7-2.4-1.3-2.6zM178.7 160l-1.3 2.7-1.7 2.4 3-.3 3 .3-1.8-2.4-1.2-2.6zM186.2 160l-1.3 2.7-1.7 2.4 3-.3 2.9.3-1.7-2.4-1.3-2.6zM193.6 160l-1.3 2.7-1.6 2.4 3-.3 2.9.3-1.7-2.4-1.3-2.6zM201 160l-1.2 2.7-1.7 2.4 3-.3 3 .3-1.8-2.4-1.2-2.6zM208.5 160l-1.2 2.7-1.7 2.4 3-.3 2.9.3-1.7-2.4-1.3-2.6zM216 160l-1.3 2.7-1.7 2.4 3-.3 3 .3-1.8-2.4-1.2-2.6zM223.4 160l-1.2 2.7-1.7 2.4 3-.3 2.9.3-1.7-2.4-1.3-2.6zM230.9 160l-1.3 2.7-1.7 2.4 3-.3 3 .3-1.8-2.4-1.2-2.6zM238.4 160l-1.3 2.7-1.7 2.4 3-.3 2.9.3-1.7-2.4-1.2-2.6zM380 160l-1.2 2.7-1.7 2.4 3-.3 3 .3-1.8-2.4-1.2-2.6zM387.5 160l-1.2 2.7-1.7 2.4 3-.3 2.9.3-1.7-2.4-1.3-2.6zM395 160l-1.3 2.7-1.7 2.4 3-.3 3 .3-1.8-2.4-1.2-2.6zM402.4 160l-1.2 2.7-1.7 2.4 3-.3 2.9.3-1.7-2.4-1.3-2.6zM410 160l-1.4 2.7-1.6 2.4 3-.3 2.9.3-1.7-2.4-1.3-2.6zM417.4 160l-1.3 2.7-1.7 2.4 3-.3 3 .3-1.8-2.4-1.2-2.6zM424.8 160l-1.2 2.7-1.7 2.4 3-.3 2.9.3-1.7-2.4-1.3-2.6zM432.3 160l-1.3 2.7-1.7 2.4 3-.3 3 .3-1.8-2.4-1.2-2.6zM439.7 160l-1.2 2.7-1.7 2.4 3-.3 2.9.3-1.7-2.4-1.3-2.6zM447.2 160l-1.3 2.7-1.6 2.4 2.9-.3 3 .3-1.8-2.4-1.2-2.6zM454.7 163.4zM618.8 160l-1.3 2.7-1.7 2.4 3-.3 2.9.3-1.7-2.4-1.3-2.6zM626.2 163l-.1.3-.2.3h.6l-.2-.3v-.3zM641.1 160l-1.2 2.7-1.7 2.4 3-.3 2.9.3-1.7-2.4-1.3-2.6zM648.6 160l-1.3 2.7-1.7 2.4 3-.3 3 .3-1.8-2.4-1.2-2.6zM663.5 163.3v.1zM685.9 163.1l-.1.2-.2.2h.5l-.1-.2-.1-.2zM700.8 163.3l-.1.1h.2l-.1-.1zM708.3 160l-1.3 2.7-1.7 2.4 3-.3 2.9.3-1.7-2.4-1.3-2.6zM715.7 160l-1.2 2.7-1.7 2.4 3-.3 2.9.3-1.7-2.4-1.3-2.6zM145.1 166.4L144 169l-1.7 2.4 3-.3 2.9.3-1.7-2.4-1.3-2.6zM152.6 166.4l-1.3 2.6-1.7 2.4 3-.3 3 .3-1.8-2.4-1.2-2.6zM160 166.5l-1.2 2.5-1.6 2.3 2.8-.2 2.9.2-1.7-2.3-1.2-2.5zM167.5 166.4l-1.3 2.6-1.6 2.4 2.9-.3 3 .3-1.8-2.4-1.2-2.6zM175 166.4l-1.3 2.6-1.7 2.4 3-.3 3 .3-1.8-2.4-1.2-2.6zM182.4 166.4l-1.2 2.6-1.7 2.4 3-.3 2.9.3-1.7-2.4-1.3-2.6zM189.9 166.4l-1.3 2.6-1.7 2.4 3-.3 3 .3-1.8-2.4-1.2-2.6zM197.3 166.4l-1.2 2.6-1.7 2.4 3-.3 2.9.3-1.7-2.4-1.3-2.6zM204.8 166.4l-1.3 2.6-1.7 2.4 3-.3 3 .3-1.8-2.4-1.2-2.6zM212.3 166.4L211 169l-1.7 2.4 3-.3 2.9.3-1.7-2.4-1.3-2.6zM219.7 166.4l-1.2 2.6-1.7 2.4 3-.3 2.9.3-1.7-2.4-1.3-2.6zM227.2 166.4l-1.3 2.6-1.7 2.4 3-.3 3 .3-1.8-2.4-1.2-2.6zM234.6 166.4l-1.2 2.6-1.7 2.4 3-.3 2.9.3-1.7-2.4-1.3-2.6zM242 166.4l-1.2 2.6-1.7 2.4 3-.3 3 .3-1.8-2.4-1.2-2.6zM249.5 166.4l-1.2 2.6-1.7 2.4 3-.3 2.9.3-1.7-2.4-1.3-2.6zM257 169l-.2.6-.4.4h1.2l-.4-.4-.2-.5zM383.8 166.4l-1.3 2.6-1.6 2.4 2.9-.3 3 .3-1.7-2.4-1.3-2.6zM391.3 166.4L390 169l-1.7 2.4 3-.3 3 .3-1.8-2.4-1.2-2.6zM398.7 166.4l-1.2 2.6-1.7 2.4 3-.3 2.9.3-1.7-2.4-1.3-2.6zM406.2 166.4l-1.3 2.6-1.7 2.4 3-.3 3 .3-1.8-2.4-1.2-2.6zM413.6 166.4l-1.2 2.6-1.7 2.4 3-.3 2.9.3-1.7-2.4-1.3-2.6zM421.1 166.4l-1.3 2.6-1.7 2.4 3-.3 3 .3-1.8-2.4-1.2-2.6zM428.6 166.4l-1.3 2.6-1.7 2.4 3-.3 2.9.3-1.7-2.4-1.3-2.6zM436 166.4l-1.2 2.6-1.7 2.4 3-.3 2.9.3-1.7-2.4-1.3-2.6zM443.5 166.4l-1.3 2.6-1.7 2.4 3-.3 3 .3-1.8-2.4-1.2-2.6zM451 169l-.3.6-.4.5H451.6l-.4-.5-.3-.7zM622.5 166.4l-1.3 2.6-1.7 2.4 3-.3 3 .3-1.8-2.4-1.2-2.6zM667.2 169.6v.1h.1zM712 166.4l-1.3 2.6-1.7 2.4 3-.3 3 .3-1.8-2.4-1.2-2.6zM719.4 166.4l-1.2 2.6-1.7 2.4 3-.3 2.9.3-1.7-2.4-1.3-2.6zM726.9 166.4l-1.3 2.6-1.6 2.4 2.9-.3 3 .3-1.8-2.4-1.2-2.6zM148.8 172.7l-1.2 2.6-1.7 2.4 3-.3 2.9.3-1.7-2.4-1.3-2.6zM156.3 172.7l-1.2 2.6-1.7 2.4 3-.3 2.9.3-1.7-2.4-1.3-2.6zM163.8 172.7l-1.3 2.6-1.7 2.4 3-.3 3 .3-1.8-2.4-1.2-2.6zM171.2 172.7l-1.2 2.6-1.7 2.4 3-.3 2.9.3-1.7-2.4-1.3-2.6zM178.7 172.7l-1.3 2.6-1.7 2.4 3-.3 3 .3-1.8-2.4-1.2-2.6zM186.2 172.7l-1.3 2.6-1.7 2.4 3-.3 2.9.3-1.7-2.4-1.3-2.6zM193.6 172.7l-1.3 2.6-1.6 2.4 3-.3 2.9.3-1.7-2.4-1.3-2.6zM201 172.7l-1.2 2.6-1.7 2.4 3-.3 3 .3-1.8-2.4-1.2-2.6zM208.5 172.7l-1.2 2.6-1.7 2.4 3-.3 2.9.3-1.7-2.4-1.3-2.6zM216 172.7l-1.3 2.6-1.7 2.4 3-.3 3 .3-1.8-2.4-1.2-2.6zM223.4 172.7l-1.2 2.6-1.7 2.4 3-.3 2.9.3-1.7-2.4-1.3-2.6zM230.9 172.7l-1.3 2.6-1.7 2.4 3-.3 3 .3-1.8-2.4-1.2-2.6zM238.4 172.7l-1.3 2.6-1.7 2.4 3-.3 2.9.3-1.7-2.4-1.2-2.6zM245.8 172.7l-1.2 2.6-1.7 2.4 3-.3 2.9.3-1.7-2.4-1.3-2.6zM253.3 172.7l-1.3 2.6-1.7 2.4 3-.3 3 .3-1.8-2.4-1.2-2.6zM387.5 172.7l-1.2 2.6-1.7 2.4 3-.3 2.9.3-1.7-2.4-1.3-2.6zM395 172.7l-1.3 2.6-1.7 2.4 3-.3 3 .3-1.8-2.4-1.2-2.6zM402.4 172.7l-1.2 2.6-1.7 2.4 3-.3 2.9.3-1.7-2.4-1.3-2.6zM410 172.7l-1.4 2.6-1.6 2.4 3-.3 2.9.3-1.7-2.4-1.3-2.6zM417.4 172.7l-1.3 2.6-1.7 2.4 3-.3 3 .3-1.8-2.4-1.2-2.6zM424.8 172.7l-1.2 2.6-1.7 2.4 3-.3 2.9.3-1.7-2.4-1.3-2.6zM432.3 172.7l-1.3 2.6-1.7 2.4 3-.3 3 .3-1.8-2.4-1.2-2.6zM439.7 172.7l-1.2 2.6-1.7 2.4 3-.3 2.9.3-1.7-2.4-1.3-2.6zM447.2 172.7l-1.3 2.6-1.6 2.4 2.9-.3 3 .3-1.8-2.4-1.2-2.6zM633.7 172.7l-1.3 2.6-1.7 2.4 3-.3 3 .3-1.8-2.4-1.2-2.6zM641.1 172.7l-1.2 2.6-1.7 2.4 3-.3 2.9.3-1.7-2.4-1.3-2.6zM715.7 172.8l-1.2 2.5-1.6 2.3 2.8-.2 2.9.3-1.7-2.4-1.2-2.5zM723.2 172.7l-1.3 2.6-1.7 2.4 3-.3 3 .3-1.8-2.4-1.2-2.6zM730.6 172.7l-1.2 2.6-1.7 2.4 3-.3 2.9.3-1.7-2.4-1.3-2.6zM152.6 179l-1.3 2.7-1.7 2.3 3-.2 3 .2-1.8-2.3-1.2-2.7zM160 179l-1.2 2.7-1.7 2.3 3-.2 2.9.2-1.7-2.3-1.3-2.7zM167.5 179l-1.3 2.7-1.6 2.3 2.9-.2 3 .2-1.8-2.3-1.2-2.7zM175 179l-1.3 2.7-1.7 2.3 3-.2 3 .2-1.8-2.3-1.2-2.7zM182.4 179l-1.2 2.7-1.7 2.3 3-.2 2.9.2-1.7-2.3-1.3-2.7zM189.9 179l-1.3 2.7-1.7 2.3 3-.2 3 .2-1.8-2.3-1.2-2.7zM197.3 179l-1.2 2.7-1.7 2.3 3-.2 2.9.2-1.7-2.3-1.3-2.7zM204.8 179l-1.3 2.7-1.7 2.3 3-.2 3 .2-1.8-2.3-1.2-2.7zM212.3 179l-1.3 2.7-1.7 2.3 3-.2 2.9.2-1.7-2.3-1.3-2.7zM219.7 179l-1.2 2.7-1.7 2.3 3-.2 2.9.2-1.7-2.3-1.3-2.7zM227.2 179l-1.3 2.7-1.7 2.3 3-.2 3 .2-1.8-2.3-1.2-2.7zM234.6 179l-1.2 2.7-1.7 2.3 3-.2 2.9.2-1.7-2.3-1.3-2.7zM242 179l-1.2 2.7-1.7 2.3 3-.2 3 .2-1.8-2.3-1.2-2.7zM249.5 179l-1.2 2.7-1.7 2.3 3-.2 2.9.2-1.7-2.3-1.3-2.7zM257 180.3l-.7 1.6-1 1.5 1.7-.2 1.8.2-1-1.5-.8-1.6zM391.3 179l-1.3 2.7-1.7 2.3 3-.2 3 .2-1.8-2.3-1.2-2.7zM398.7 179l-1.2 2.7-1.7 2.3 3-.2 2.9.2-1.7-2.3-1.3-2.7zM406.2 179l-1.3 2.7-1.7 2.3 3-.2 3 .2-1.8-2.3-1.2-2.7zM413.6 179l-1.2 2.7-1.7 2.3 3-.2 2.9.2-1.7-2.3-1.3-2.7zM421.1 179l-1.3 2.7-1.7 2.3 3-.2 3 .2-1.8-2.3-1.2-2.7zM428.6 179l-1.3 2.7-1.7 2.3 3-.2 2.9.2-1.7-2.3-1.3-2.7zM436 179l-1.2 2.7-1.7 2.3 3-.3 2.8.3-1.6-2.3-1.3-2.6zM443.5 179l-1.3 2.7-1.7 2.3 3-.2 3 .2-1.8-2.3-1.2-2.7zM451 179l-1.3 2.7-1.7 2.3 3-.2 2.9.2-1.7-2.3-1.3-2.7zM659.8 180.9l-.6 1.2-.7 1 1.3-.1h1.3l-.8-1-.5-1.1zM734.4 179l-1.3 2.7-1.7 2.3 3-.2 2.9.2-1.7-2.3-1.2-2.7zM156.3 185.3l-1.2 2.7-1.7 2.3 3-.2 2.9.2-1.7-2.3-1.3-2.7zM163.8 185.3l-1.3 2.7-1.7 2.3 3-.2 3 .2-1.8-2.3-1.2-2.7zM171.2 185.3L170 188l-1.7 2.3 3-.2 2.9.2-1.7-2.3-1.3-2.7zM178.7 185.3l-1.3 2.7-1.7 2.3 3-.2 3 .2-1.8-2.3-1.2-2.7zM186.2 185.3l-1.3 2.7-1.7 2.3 3-.2 2.9.2-1.7-2.3-1.3-2.7zM193.6 185.3l-1.3 2.7-1.6 2.3 3-.2 2.9.2-1.7-2.3-1.3-2.7zM201 185.3l-1.2 2.7-1.7 2.3 3-.2 3 .2-1.8-2.3-1.2-2.7zM208.5 185.3l-1.2 2.7-1.7 2.3 3-.2 2.9.2-1.7-2.3-1.3-2.7zM216 185.3l-1.3 2.7-1.7 2.3 3-.2 3 .2-1.8-2.3-1.2-2.7zM223.4 185.3l-1.2 2.7-1.7 2.3 3-.2 2.9.2-1.7-2.3-1.3-2.7zM230.9 185.3l-1.3 2.7-1.7 2.3 3-.2 3 .2-1.8-2.3-1.2-2.7zM238.4 185.3L237 188l-1.7 2.3 3-.2 2.9.2-1.7-2.3-1.2-2.7zM245.8 185.3l-1.2 2.7-1.7 2.3 3-.2 2.9.2-1.7-2.3-1.3-2.7zM387.5 185.3l-1.2 2.7-1.7 2.3 3-.2 2.9.2-1.7-2.3-1.3-2.7zM395 185.3l-1.3 2.7-1.7 2.3 3-.2 3 .2-1.8-2.3-1.2-2.7zM402.4 185.3l-1.2 2.7-1.7 2.3 3-.2 2.9.2-1.7-2.3-1.3-2.7zM410 185.3l-1.4 2.7-1.6 2.3 3-.2 2.9.2-1.7-2.3-1.3-2.7zM417.4 185.3L416 188l-1.7 2.3 3-.2 3 .2-1.8-2.3-1.2-2.7zM424.8 185.3l-1.2 2.7-1.7 2.3 3-.2 2.9.2-1.7-2.3-1.3-2.7zM432.3 185.3L431 188l-1.7 2.3 3-.2 3 .2-1.8-2.3-1.2-2.7zM447.2 185.4L446 188l-1.7 2.3 2.9-.2 2.9.2-1.7-2.3-1.2-2.6zM454.7 188.3l-.2.3-.1.2h.6l-.2-.2-.1-.3zM693.3 188.4v.2l-.2.2h.4v-.2l-.2-.2zM160 191.7l-1.2 2.6-1.7 2.4 3-.3 2.9.3-1.7-2.4-1.3-2.6zM167.5 191.7l-1.3 2.6-1.6 2.4 2.9-.3 3 .3-1.8-2.4-1.2-2.6zM175 191.7l-1.3 2.6-1.7 2.4 3-.3 3 .3-1.8-2.4-1.2-2.6zM182.4 191.7l-1.2 2.6-1.7 2.4 3-.3 2.9.3-1.7-2.4-1.3-2.6zM189.9 191.7l-1.3 2.6-1.7 2.4 3-.3 3 .3-1.8-2.4-1.2-2.6zM197.3 191.7l-1.2 2.6-1.7 2.4 3-.3 2.9.3-1.7-2.4-1.3-2.6zM204.8 191.7l-1.3 2.6-1.7 2.4 3-.3 3 .3-1.8-2.4-1.2-2.6zM212.3 191.7l-1.3 2.6-1.7 2.4 3-.3 2.9.3-1.7-2.4-1.3-2.6zM219.7 191.7l-1.2 2.6-1.7 2.4 3-.3 2.9.3-1.7-2.4-1.3-2.6zM227.2 191.7l-1.3 2.6-1.7 2.4 3-.3 3 .3-1.8-2.4-1.2-2.6zM234.6 191.7l-1.2 2.6-1.7 2.4 3-.3 2.9.3-1.7-2.4-1.3-2.6zM242 191.7l-1.2 2.6-1.7 2.4 3-.3 3 .3-1.8-2.4-1.2-2.6zM249.5 194.8v.2h.2-.1v-.2zM383.8 191.7l-1.3 2.6-1.6 2.4 2.9-.3 3 .3-1.7-2.4-1.3-2.6zM391.3 191.7l-1.3 2.6-1.7 2.4 3-.3 3 .3-1.8-2.4-1.2-2.6zM398.7 191.7l-1.2 2.6-1.7 2.4 3-.3 2.9.3-1.7-2.4-1.3-2.6zM406.2 191.8l-1.2 2.5-1.7 2.3 2.9-.2 2.9.2-1.7-2.3-1.2-2.5zM413.6 191.7l-1.2 2.6-1.7 2.4 3-.3 2.9.3-1.7-2.4-1.3-2.6zM421.1 191.7l-1.3 2.6-1.7 2.4 3-.3 3 .3-1.8-2.4-1.2-2.6zM428.6 191.7l-1.3 2.6-1.7 2.4 3-.3 2.9.3-1.7-2.4-1.3-2.6zM436 191.7l-1.2 2.6-1.7 2.3 3-.2 2.8.3-1.6-2.4-1.3-2.6zM443.5 191.7l-1.3 2.6-1.7 2.4 3-.3 3 .3-1.8-2.4-1.2-2.6zM451 191.7l-1.3 2.6-1.7 2.4 3-.3 2.9.3-1.7-2.4-1.3-2.6zM689.6 191.7l-1.3 2.6-1.6 2.4 3-.3 2.8.3-1.6-2.4-1.3-2.6zM697 191.7l-1.2 2.6-1.7 2.4 3-.3 3 .3-1.8-2.4-1.2-2.6zM719.4 191.7l-1.2 2.6-1.7 2.4 3-.3 2.9.3-1.7-2.4-1.3-2.6zM163.8 198l-1.3 2.6-1.7 2.4 3-.3 3 .3-1.8-2.4-1.2-2.6zM171.2 201.3zM178.7 198l-1.3 2.6-1.7 2.4 3-.3 3 .3-1.8-2.4-1.2-2.6zM186.2 198l-1.3 2.6-1.7 2.4 3-.3 2.9.3-1.7-2.4-1.3-2.6zM193.6 198l-1.3 2.6-1.6 2.4 3-.3 2.9.3-1.7-2.4-1.3-2.6zM201 198l-1.2 2.6-1.7 2.4 3-.3 3 .3-1.8-2.4-1.2-2.6zM208.5 198l-1.2 2.6-1.7 2.4 3-.3 2.9.3-1.7-2.4-1.3-2.6zM216 198l-1.3 2.6-1.7 2.4 3-.3 3 .3-1.8-2.4-1.2-2.6zM223.4 198l-1.2 2.6-1.7 2.4 3-.3 2.9.3-1.7-2.4-1.3-2.6zM230.9 198l-1.3 2.6-1.7 2.4 3-.3 3 .3-1.8-2.4-1.2-2.6zM238.4 198l-1.3 2.6-1.7 2.4 3-.3 2.9.3-1.7-2.4-1.2-2.6zM245.8 198l-1.2 2.6-1.7 2.4 3-.3 2.9.3-1.7-2.4-1.3-2.6zM387.5 198l-1.2 2.6-1.7 2.4 3-.3 2.9.3-1.7-2.4-1.3-2.6zM395 198l-1.3 2.6-1.7 2.4 3-.3 3 .3-1.8-2.4-1.2-2.6zM402.4 198l-1.2 2.6-1.7 2.4 3-.3 2.9.3-1.7-2.4-1.3-2.6zM410 198l-1.4 2.6-1.6 2.4 3-.3 2.9.3-1.7-2.4-1.3-2.6zM417.4 198l-1.3 2.6-1.7 2.4 3-.3 3 .3-1.8-2.4-1.2-2.6zM424.8 198l-1.2 2.6-1.7 2.4 3-.3 2.9.3-1.7-2.4-1.3-2.6zM432.3 198l-1.3 2.6-1.7 2.4 3-.3 3 .3-1.8-2.4-1.2-2.6zM439.7 198l-1.2 2.6-1.7 2.4 3-.3 2.8.3-1.6-2.4-1.3-2.5zM447.2 198l-1.3 2.6-1.6 2.4 2.9-.3 3 .3-1.8-2.4-1.2-2.6zM469.6 198l-1.3 2.6-1.7 2.4 3-.3 3 .3-1.8-2.4-1.2-2.6zM477 198l-1.2 2.6-1.7 2.4 3-.3 2.9.3-1.7-2.4-1.3-2.6zM671 200.8l-.2.4-.3.4h1l-.4-.4-.1-.4zM678.4 198l-1.2 2.6-1.7 2.4 3-.3 2.9.3-1.7-2.4-1.3-2.6zM685.9 198l-1.3 2.6-1.7 2.4 3-.3 3 .3-1.8-2.4-1.2-2.6zM693.3 198l-1.2 2.6-1.7 2.4 3-.3 2.9.3-1.7-2.4-1.3-2.6zM700.8 198l-1.3 2.6-1.6 2.4 2.9-.3 3 .3-1.8-2.4-1.2-2.6zM715.7 198l-1.2 2.6-1.7 2.4 3-.3 2.9.3-1.7-2.4-1.3-2.6zM723.2 198l-1.3 2.6-1.7 2.4 3-.3 3 .3-1.8-2.4-1.2-2.6zM175 204.3l-1.3 2.6-1.7 2.4 3-.2 3 .2-1.8-2.4-1.2-2.6zM182.4 204.3l-1.2 2.6-1.7 2.4 3-.2 2.9.2-1.7-2.4-1.3-2.6zM189.9 204.3l-1.3 2.6-1.7 2.4 3-.2 3 .2-1.8-2.4-1.2-2.6zM197.3 204.3l-1.2 2.6-1.7 2.4 3-.2 2.9.2-1.7-2.4-1.3-2.6zM204.8 204.3l-1.3 2.6-1.7 2.4 3-.2 3 .2-1.8-2.4-1.2-2.6zM212.3 204.3L211 207l-1.7 2.4 3-.2 2.9.2-1.7-2.4-1.3-2.6zM219.7 204.3l-1.2 2.6-1.7 2.4 3-.2 2.9.2-1.7-2.4-1.3-2.6zM227.2 204.3l-1.3 2.6-1.7 2.4 3-.2 3 .2-1.8-2.4-1.2-2.6zM234.6 204.3l-1.2 2.6-1.7 2.4 3-.2 2.9.2-1.7-2.4-1.3-2.6zM242 204.3l-1.2 2.6-1.7 2.4 3-.2 3 .2-1.8-2.4-1.2-2.6zM383.8 204.3l-1.3 2.6-1.6 2.4 2.9-.2 3 .2-1.7-2.4-1.3-2.6zM391.3 204.3L390 207l-1.7 2.4 3-.2 3 .2-1.8-2.4-1.2-2.6zM398.7 204.3l-1.2 2.6-1.7 2.4 3-.2 2.9.2-1.7-2.4-1.3-2.6zM406.2 204.3l-1.3 2.6-1.7 2.4 3-.2 3 .2-1.8-2.4-1.2-2.6zM413.6 204.3l-1.2 2.6-1.7 2.4 3-.2 2.9.2-1.7-2.4-1.3-2.6zM421.1 204.3l-1.3 2.6-1.7 2.4 3-.2 3 .2-1.8-2.4-1.2-2.6zM428.6 204.3l-1.3 2.6-1.7 2.4 3-.2 2.9.2-1.7-2.4-1.3-2.6zM436 204.3l-1.2 2.6-1.7 2.4 3-.2 2.9.2-1.7-2.4-1.3-2.6zM443.5 205.4l-.9 1.8-1.1 1.6 2-.2 2 .2-1.2-1.6-.8-1.8zM465.9 204.3l-1.3 2.6-1.7 2.4 3-.2 2.9.2-1.7-2.4-1.3-2.6zM473.3 204.3L472 207l-1.6 2.4 3-.2 2.9.2-1.7-2.4-1.3-2.6zM667.2 204.3L666 207l-1.7 2.4 3-.2 2.9.2-1.7-2.4-1.3-2.6zM674.7 204.3l-1.3 2.6-1.7 2.4 3-.2 3 .2-1.8-2.4-1.2-2.6zM682.1 204.3L681 207l-1.7 2.4 3-.2 2.9.2-1.7-2.4-1.3-2.6zM689.6 204.3l-1.3 2.6-1.6 2.4 3-.2 2.8.2-1.6-2.4-1.3-2.6zM697 204.3l-1.2 2.6-1.7 2.4 3-.2 3 .2-1.8-2.4-1.2-2.6zM704.5 204.3l-1.2 2.6-1.7 2.4 3-.2 2.9.2-1.7-2.4-1.3-2.6zM712 204.3l-1.3 2.6-1.7 2.4 3-.2 3 .2-1.8-2.4-1.2-2.6zM719.4 204.3l-1.2 2.6-1.7 2.4 3-.2 2.9.2-1.7-2.4-1.3-2.6zM171.2 213.8v.1l-.1.2H171.4l-.1-.2v-.1zM178.7 210.7l-1.3 2.6-1.7 2.3 3-.2 3 .2-1.8-2.3-1.2-2.7zM186.2 210.7l-1.3 2.6-1.7 2.3 3-.2 2.9.2-1.7-2.3-1.3-2.7zM193.6 210.7l-1.3 2.6-1.6 2.3 3-.2 2.9.2-1.7-2.3-1.3-2.7zM201 210.7l-1.2 2.6-1.7 2.3 3-.2 2.9.2-1.7-2.3-1.2-2.6zM208.5 210.7l-1.2 2.6-1.7 2.3 3-.2 2.9.2-1.7-2.3-1.3-2.7zM216 210.7l-1.3 2.6-1.7 2.3 3-.2 3 .2-1.8-2.3-1.2-2.7zM223.4 210.7l-1.2 2.6-1.7 2.3 3-.2 2.9.2-1.7-2.3-1.3-2.7zM230.9 210.7l-1.3 2.6-1.7 2.3 3-.2 3 .2-1.8-2.3-1.2-2.7zM238.4 210.7l-1.3 2.6-1.7 2.3 3-.2 2.9.2-1.7-2.3-1.2-2.7zM245.8 210.7l-1.2 2.6-1.7 2.3 3-.2 2.9.2-1.7-2.3-1.3-2.7zM387.5 210.7l-1.2 2.6-1.7 2.3 3-.2 2.9.2-1.7-2.3-1.3-2.7zM395 210.7l-1.3 2.6-1.7 2.3 3-.2 3 .2-1.8-2.3-1.2-2.7zM402.4 210.7l-1.2 2.6-1.7 2.3 3-.2 2.9.2-1.7-2.3-1.3-2.7zM410 210.7l-1.4 2.6-1.6 2.3 3-.2 2.9.2-1.7-2.3-1.3-2.7zM417.4 210.7l-1.3 2.6-1.7 2.3 3-.2 3 .2-1.8-2.3-1.2-2.7zM424.8 210.7l-1.2 2.6-1.7 2.3 3-.2 2.9.2-1.7-2.3-1.3-2.7zM432.3 210.7l-1.3 2.6-1.7 2.3 3-.2 3 .2-1.8-2.3-1.2-2.7zM469.6 210.7l-1.3 2.6-1.7 2.3 3-.2 3 .2-1.8-2.3-1.2-2.7zM656 210.7l-1.2 2.6-1.7 2.3 3-.2 2.9.2-1.7-2.3-1.3-2.7zM663.5 210.7l-1.3 2.6-1.7 2.3 3-.2 3 .2-1.7-2.3-1.3-2.7zM671 210.7l-1.3 2.6-1.7 2.3 3-.2 3 .2-1.8-2.3-1.2-2.7zM678.4 210.7l-1.2 2.6-1.7 2.3 3-.2 2.9.2-1.7-2.3-1.3-2.7zM685.9 210.7l-1.3 2.6-1.7 2.3 3-.2 3 .2-1.8-2.3-1.2-2.7zM693.3 210.7l-1.2 2.6-1.7 2.3 3-.2 2.9.2-1.7-2.3-1.3-2.7zM700.8 210.7l-1.3 2.6-1.6 2.3 2.9-.2 3 .2-1.8-2.3-1.2-2.7zM708.3 210.7l-1.3 2.6-1.7 2.3 3-.2 2.9.2-1.7-2.3-1.3-2.7zM715.7 210.7l-1.2 2.6-1.7 2.3 3-.2 2.9.2-1.7-2.3-1.3-2.7zM723.2 210.7l-1.3 2.6-1.7 2.3 3-.2 3 .2-1.8-2.3-1.2-2.7zM730.6 213.7v.2l-.2.2h.5l-.2-.2v-.2zM175 217l-1.3 2.6-1.7 2.4 3-.3 3 .3-1.8-2.4-1.2-2.6zM182.4 217l-1.2 2.6-1.7 2.4 3-.3 2.9.3-1.7-2.4-1.3-2.6zM189.9 217l-1.3 2.6-1.7 2.4 3-.3 3 .3-1.8-2.4-1.2-2.6zM197.3 217l-1.2 2.6-1.7 2.4 3-.3 2.9.3-1.7-2.4-1.3-2.6zM204.8 217l-1.3 2.6-1.7 2.4 3-.3 3 .3-1.8-2.4-1.2-2.6zM212.3 217l-1.3 2.6-1.7 2.4 3-.3 2.9.3-1.7-2.4-1.3-2.6zM219.7 217l-1.2 2.6-1.7 2.4 3-.3 2.9.3-1.7-2.4-1.3-2.6zM227.2 217l-1.3 2.6-1.7 2.4 3-.3 3 .3-1.8-2.4-1.2-2.6zM234.6 217l-1.2 2.6-1.7 2.4 3-.3 2.9.3-1.7-2.4-1.3-2.6zM242 218.2l-.7 1.7-1 1.4 1.8-.1 1.8.1-1-1.4-.8-1.7zM391.3 217l-1.3 2.6-1.7 2.4 3-.3 3 .3-1.8-2.4-1.2-2.6zM398.7 217l-1.2 2.6-1.7 2.4 3-.3 2.9.3-1.7-2.4-1.3-2.6zM406.2 217l-1.3 2.6-1.7 2.4 3-.3 3 .3-1.8-2.4-1.2-2.6zM413.6 217l-1.2 2.6-1.7 2.4 3-.3 2.9.3-1.7-2.4-1.3-2.6zM421.1 217l-1.3 2.6-1.6 2.3 2.9-.2 3 .3-1.8-2.4-1.2-2.6zM428.6 217l-1.3 2.6-1.7 2.4 3-.3 2.9.3-1.7-2.4-1.3-2.6zM436 217l-1.2 2.6-1.7 2.4 3-.3 2.9.3-1.7-2.4-1.3-2.6zM465.9 217l-1.3 2.6-1.7 2.4 3-.3 2.9.3-1.7-2.4-1.3-2.6zM644.9 217l-1.3 2.6-1.7 2.4 3-.3 2.9.3-1.7-2.4-1.2-2.6zM652.3 217l-1.2 2.6-1.7 2.4 3-.3 2.9.3-1.7-2.4-1.3-2.6zM659.8 217l-1.3 2.6-1.7 2.4 3-.3 3 .3-1.8-2.4-1.2-2.6zM667.2 217l-1.2 2.6-1.7 2.4 3-.3 2.9.3-1.7-2.4-1.3-2.6zM674.7 217l-1.3 2.6-1.7 2.4 3-.3 3 .3-1.8-2.4-1.2-2.6zM682.1 217l-1.2 2.6-1.7 2.4 3-.3 2.9.3-1.7-2.4-1.3-2.6zM689.6 217l-1.3 2.6-1.6 2.4 3-.3 2.8.3-1.6-2.4-1.3-2.6zM697 217l-1.2 2.6-1.7 2.4 3-.3 3 .3-1.8-2.4-1.2-2.6zM704.5 217l-1.2 2.6-1.7 2.4 3-.3 2.9.3-1.7-2.4-1.3-2.6zM712 217l-1.3 2.6-1.7 2.4 3-.3 3 .3-1.8-2.4-1.2-2.6zM719.4 217l-1.2 2.6-1.7 2.4 3-.3 2.9.3-1.7-2.4-1.3-2.6zM726.9 217l-1.3 2.6-1.6 2.4 2.9-.3 3 .3-1.8-2.4-1.2-2.6zM734.4 219.6l-.3.6-.4.5.7-.1h.6l-.4-.4-.2-.6z"/>
</svg>